<svg width="25" height="25" xmlns="http://www.w3.org/2000/svg"><path d="M12.5 0C19.404 0 25 5.596 25 12.5S19.404 25 12.5 25 0 19.404 0 12.5 5.596 0 12.5 0zM9.134 5.469H6.25a.782.782 0 00-.781.781c0 7.323 5.958 13.281 13.281 13.281.431 0 .781-.35.781-.781v-2.884a.782.782 0 00-.781-.782 8.626 8.626 0 01-3.82-.873.794.794 0 00-.599-.036.788.788 0 00-.448.398l-.563 1.165a11.002 11.002 0 01-4.058-4.058l1.166-.563a.783.783 0 00.363-1.047 8.596 8.596 0 01-.875-3.82.782.782 0 00-.782-.781z" fill="#B5E5FB" fill-rule="nonzero"/></svg>