<svg xmlns="http://www.w3.org/2000/svg" viewBox="10891.324 3243.94 208.406 61.035">
  <defs>
    <style>
      .cls-1 {
        fill: #fff;
      }

      .cls-2 {
        fill: #009ee3;
      }

      .cls-3 {
        fill: #1b1b18;
      }
    </style>
  </defs>
  <g id="group-212" transform="translate(10863 3215)">
    <g id="group-1" transform="translate(28.324 28.94)">
      <path id="path" class="cls-1" d="M61.035,30.48A30.517,30.517,0,1,1,30.48,0,30.563,30.563,0,0,1,61.035,30.48"/>
      <path id="path-2" data-name="path" class="cls-2" d="M33.03,51.208a18.4,18.4,0,0,1-18.2-15.61H20.9L32.66,47.065c1.776,2,3.255,3.255,5.253,2.293a3.421,3.421,0,0,0,2.145-2.885v-16.2h5.475a2.386,2.386,0,0,0,2.219-2.219,2.361,2.361,0,0,0-2.219-2.589H40.058v-9.4A18.273,18.273,0,0,1,33.03,51.208M26.15,15.992V30.715H14.9A18.282,18.282,0,0,1,26.15,15.992M35.4,14.809V43.366L28.221,35.6a2.188,2.188,0,0,0,2.071-.666,2.134,2.134,0,0,0,.444-1.924v-18.2a22.408,22.408,0,0,1,2.293-.148c.814,0,1.628.074,2.367.148M33.03,10A23.369,23.369,0,0,0,9.8,33.008a23.341,23.341,0,0,0,46.682,0A23.271,23.271,0,0,0,33.03,10" transform="translate(-2.55 -2.602)"/>
      <g id="group" transform="translate(63.254 52.527)">
        <path id="path-3" data-name="path" class="cls-3" d="M96.337,75.983l-1.85-4.735H93.6l2.737,6.806,1.85-4.809,1.849,4.809,2.737-6.806h-.888l-1.85,4.735L98.187,71.1Z" transform="translate(-87.607 -71.026)"/>
        <rect id="rectangle" class="cls-3" width="0.814" height="6.584" transform="translate(17.386 0.222)"/>
        <path id="path-4" data-name="path" class="cls-3" d="M113.3,71.3v.74h1.554v5.844h.814V72.04h1.554V71.3Z" transform="translate(-92.733 -71.078)"/>
        <path id="path-5" data-name="path" class="cls-3" d="M135.721,71.3v2.663h-3.107V71.3H131.8v6.584h.814V74.7h3.107v3.181h.814V71.3Z" transform="translate(-97.547 -71.078)"/>
        <path id="path-6" data-name="path" class="cls-3" d="M147.1,71.3v.74h1.554v5.844h.814V72.04h1.554V71.3Z" transform="translate(-101.527 -71.078)"/>
        <path id="path-7" data-name="path" class="cls-3" d="M172.6,71.3v.74h1.554v5.844h.814V72.04h1.553V71.3Z" transform="translate(-108.162 -71.078)"/>
        <path id="path-8" data-name="path" class="cls-3" d="M184.921,71.3v2.663h-3.107V71.3H181v6.584h.814V74.7h3.107v3.181h.814V71.3Z" transform="translate(-110.348 -71.078)"/>
        <path id="path-9" data-name="path" class="cls-3" d="M191.4,71.3v6.584h3.477v-.74h-2.663V74.629H194.8v-.74h-2.589V72.04h2.663V71.3Z" transform="translate(-113.053 -71.078)"/>
        <path id="path-10" data-name="path" class="cls-3" d="M205.6,71.3v6.584h.814V74.629h2.293v-.74h-2.293V72.04h2.367V71.3Z" transform="translate(-116.749 -71.078)"/>
        <path id="path-11" data-name="path" class="cls-3" d="M222.9,71.3v.74h1.554v5.844h.814V72.04h1.554V71.3Z" transform="translate(-121.249 -71.078)"/>
        <path id="path-12" data-name="path" class="cls-3" d="M250.3,71.3v6.584h3.551v-.74h-2.737V74.629h2.663v-.74h-2.663V72.04h2.737V71.3Z" transform="translate(-128.379 -71.078)"/>
        <path id="path-13" data-name="path" class="cls-3" d="M88.755,72.584a.991.991,0,0,0-1.036-.592,1.061,1.061,0,0,0-1.11.962c0,.518.518.814.888.962l.444.222c.962.37,1.627.888,1.627,2A2.023,2.023,0,0,1,87.5,78.206a2.068,2.068,0,0,1-2-1.85l.814-.148a1.247,1.247,0,0,0,1.258,1.258,1.233,1.233,0,0,0,1.184-1.258c0-.74-.592-1.036-1.11-1.258l-.444-.222c-.74-.3-1.406-.74-1.406-1.628a1.821,1.821,0,0,1,1.924-1.7,1.957,1.957,0,0,1,1.7.962Z" transform="translate(-85.5 -71.104)"/>
        <path id="path-14" data-name="path" class="cls-3" d="M126.431,72.48a2.469,2.469,0,0,0-1.7-.666,2.663,2.663,0,1,0,1.775,4.661v.962a3.436,3.436,0,0,1-1.7.444,3.394,3.394,0,0,1-3.4-3.4A3.473,3.473,0,0,1,124.877,71a2.982,2.982,0,0,1,1.628.444V72.48Z" transform="translate(-94.84 -71)"/>
        <path id="path-15" data-name="path" class="cls-3" d="M161.092,74.5A2.636,2.636,0,0,0,158.5,71.84a2.546,2.546,0,0,0-2.589,2.663,2.59,2.59,0,1,0,5.178,0m.814,0a3.394,3.394,0,0,1-3.4,3.4,3.348,3.348,0,0,1-3.4-3.4,3.4,3.4,0,1,1,6.806,0" transform="translate(-103.608 -71.026)"/>
        <path id="path-16" data-name="path" class="cls-3" d="M214.214,71.3v3.847c0,1.036.3,2.072,1.554,2.072s1.554-.962,1.554-2.072V71.3h.814v4.143a2.294,2.294,0,0,1-2.367,2.515,2.331,2.331,0,0,1-2.367-2.515V71.3Z" transform="translate(-118.778 -71.078)"/>
        <path id="path-17" data-name="path" class="cls-3" d="M232.114,71.3v3.847c0,1.036.3,2.072,1.554,2.072s1.554-.962,1.554-2.072V71.3h.814v4.143a2.293,2.293,0,0,1-2.367,2.515,2.331,2.331,0,0,1-2.367-2.515V71.3Z" transform="translate(-123.435 -71.078)"/>
        <path id="path-18" data-name="path" class="cls-3" d="M242.414,74.407h.222c.814,0,1.776-.148,1.776-1.184s-.962-1.184-1.776-1.184h-.222Zm3.255,3.477h-.962l-1.924-2.737h-.37v2.737H241.6V71.3h.962a3.325,3.325,0,0,1,1.7.3,1.9,1.9,0,0,1,.888,1.554A1.78,1.78,0,0,1,243.6,75Z" transform="translate(-126.115 -71.078)"/>
      </g>
      <g id="group-2" data-name="group" transform="translate(61.035 21.233)">
        <rect id="rectangle-2" data-name="rectangle" class="cls-2" width="8.878" height="18.791" transform="translate(17.682 6.436)"/>
        <rect id="rectangle-3" data-name="rectangle" class="cls-2" width="8.878" height="4.365" transform="translate(17.682 0)"/>
        <path id="path-19" data-name="path" class="cls-2" d="M277.981,38.154l.888,1.406h-.518l-.888-1.406h-.518v1.406H276.5V36.6h1.332c.518,0,1.036.148,1.036.814.074.444-.3.666-.888.74m-.962-.444h.518c.37,0,1.036.074,1.036-.444,0-.3-.37-.37-.74-.37h-.814Z" transform="translate(-132.977 -30.755)"/>
        <path id="path-20" data-name="path" class="cls-2" d="M138.057,44.089a10.178,10.178,0,0,1,1.849.37,4.6,4.6,0,0,1,.888.592,1.972,1.972,0,0,1,.444.74,4.4,4.4,0,0,1,.37,1.406v9.026h8.656v-12.5a5.715,5.715,0,0,0-.148-1.7,5.47,5.47,0,0,0-.74-1.628,4.186,4.186,0,0,0-.888-1.11,4.753,4.753,0,0,0-1.775-1.258,11.1,11.1,0,0,0-4.069-.74c-6.436-.444-9.914,2.293-9.914,2.293V37.431H124V56.222h8.73V47.788c0-.074.222-.592.3-.814a5.9,5.9,0,0,1,5.031-2.885" transform="translate(-93.298 -30.92)"/>
        <path id="path-21" data-name="path" class="cls-2" d="M243.8,37.264h8.36v1.628a10.878,10.878,0,0,1,9.1-1.7c5.992,1.406,4.661,9.4,4.661,9.4h-8.878a2.635,2.635,0,0,0,0-1.184,2.209,2.209,0,0,0-2.663-2.219,2.479,2.479,0,0,0-2.219,2.367V55.982H243.8V37.264Z" transform="translate(-124.468 -30.828)"/>
        <path id="path-22" data-name="path" class="cls-2" d="M176.439,47.961c-2.589,0-4.735-1.7-4.735-3.773,0-2.145,2.146-3.847,4.735-3.847a4.855,4.855,0,0,1,4.661,2.811v1.924a4.8,4.8,0,0,1-4.661,2.885M181.1,28.8v7.1a7.3,7.3,0,0,0-2.737-1.036,18.694,18.694,0,0,0-5.253-.444A10.3,10.3,0,0,0,162.9,44.484a9.836,9.836,0,0,0,9.914,9.766,25.611,25.611,0,0,0,5.253-.3,10.079,10.079,0,0,0,3.107-1.258V54.1h8.73V28.8Z" transform="translate(-103.419 -28.726)"/>
        <path id="path-23" data-name="path" class="cls-2" d="M211.9,43.99c0-1.258,2.367-3.625,5.031-3.329,2.959-.074,4.661,2.071,4.587,3.329H211.9Zm3.847,4.069c5.031,0,14.87-.074,14.87-.074a3.6,3.6,0,0,0,.148-1.554,9.434,9.434,0,0,0-3.847-7.768c-2-1.628-5.771-2.663-10.21-2.663-4.809,0-9.026,1.332-10.8,3.255h-.074a10.038,10.038,0,0,0-3.033,7.25,10.263,10.263,0,0,0,4.587,8.212,18.943,18.943,0,0,0,9.4,2.219c5.253,0,10.357-1.554,12.207-4.365a7.316,7.316,0,0,0,1.11-2.441h-8.582a6.031,6.031,0,0,1-4.217,1.48c-2.293,0-5.179-1.184-5.4-3.4h3.847" transform="translate(-113.8 -30.599)"/>
        <path id="path-24" data-name="path" class="cls-2" d="M96.7,33.065V28.7h-7.25a4.422,4.422,0,0,0-4.365,4.365v2.071H82.5v5.327h2.589V53.928h8.73V40.537h2.959V35.21H93.523c0-1.258.3-2.071,1.48-2.071h1.7" transform="translate(-82.5 -28.7)"/>
        <path id="path-25" data-name="path" class="cls-2" d="M277.037,40.275a2.686,2.686,0,0,1-2.738-2.737,2.731,2.731,0,0,1,2.738-2.737,2.737,2.737,0,0,1,0,5.475m0-.444a2.293,2.293,0,1,0-2.294-2.293,2.258,2.258,0,0,0,2.294,2.293" transform="translate(-132.403 -30.287)"/>
      </g>
    </g>
  </g>
</svg>