<svg width="25" height="25" xmlns="http://www.w3.org/2000/svg"><g fill-rule="nonzero" fill="none"><path d="M14.23 24.351zM14.476 24.32c-.049.02-.098.036-.146.054l.146-.053zM13.65 24.437zM13.885 24.416zM14.81 24.254zM15.638 24.047l-.105.06.105-.06zM15.387 24.115l-.113.062.113-.062zM15.06 24.198c-.04.02-.08.038-.121.057l.12-.057zM13.285 24.484z" fill="#000"/><path d="M24.51 12.255C24.51 5.488 19.022 0 12.255 0S0 5.488 0 12.255 5.488 24.51 12.255 24.51c.072 0 .144-.002.215-.003v-9.54H9.837V11.9h2.633V9.64c0-2.619 1.599-4.044 3.935-4.044 1.118 0 2.08.083 2.36.12v2.737h-1.61c-1.271 0-1.517.604-1.517 1.49V11.9h3.038l-.396 3.068h-2.642v9.07c5.122-1.47 8.872-6.188 8.872-11.782z" fill="#B5E5FB"/><path d="M13.065 24.498zM12.674 24.525z" fill="#000"/></g></svg>