<?xml version="1.0" encoding="UTF-8"?>
<svg width="100px" height="100px" viewBox="0 0 80 80" version="1.1" xmlns="http://www.w3.org/2000/svg" xmlns:xlink="http://www.w3.org/1999/xlink">
    <!-- Generator: Sketch 59.1 (86144) - https://sketch.com -->
    <g id="Page-1" stroke="none" stroke-width="1" fill="none" fill-rule="evenodd">
        <g id="logo-mark">
            <path id="inner-cog" d="M40,0 C41.381806,0 42.7472471,0.0700664201 44.0929643,0.206840255 L45.3023468,6.52349948 C46.3987436,6.69577562 47.4776898,6.92062185 48.5365243,7.19537716 L52.054425,1.84834605 C54.5175073,2.62584828 56.877607,3.63528298 59.1091024,4.85102856 L57.8064321,11.1606846 C58.7123538,11.7212233 59.5898938,12.3232557 60.4363993,12.9641291 L65.7294537,9.37209845 C67.7051,11.0335022 69.517701,12.8825508 71.139804,14.8917914 L67.5223048,20.2224466 C68.1186317,21.0508294 68.6784824,21.9072251 69.1995049,22.7892818 L75.4714108,21.4950156 C76.6659764,23.7801403 77.6462023,26.1950373 78.3854042,28.7130225 L73,32.2558162 C73.2228595,33.2091832 73.4054707,34.1780307 73.5459455,35.1604693 L79.8369952,36.3643106 C79.9448839,37.5617717 80,38.7744493 80,40 C80,41.4189104 79.9261202,42.8205652 79.7819975,44.2013276 L73.4591479,45.4116161 C73.3065072,46.3627411 73.1142871,47.3006388 72.8842305,48.2235666 L78.2460951,51.7510141 C77.4682878,54.2855912 76.4454501,56.7129649 75.2052165,59.0055009 L68.9021256,57.704519 C68.4090025,58.5078128 67.8833291,59.2889731 67.3269419,60.0461634 L70.9339454,65.3610927 C69.2635159,67.3961947 67.3961947,69.2635159 65.3610927,70.9339454 L60.0461634,67.3269419 C59.2889731,67.8833291 58.5078128,68.4090025 57.704519,68.9021256 L59.0055009,75.2052165 C56.7129649,76.4454501 54.2855912,77.4682878 51.7510141,78.2460951 L48.2235666,72.8842305 C47.3006388,73.1142871 46.3627411,73.3065072 45.4116161,73.4591479 L44.201883,79.7819395 C42.8209411,79.9261004 41.4191007,80 40,80 C38.774639,80 37.562147,79.944901 36.3648665,79.8370453 L35.1604693,73.5459455 C34.1780307,73.4054707 33.2091832,73.2228595 32.2558162,73 L28.7130225,78.3854042 C26.1950373,77.6462023 23.7801403,76.6659764 21.4950156,75.4714108 L22.7892818,69.1995049 C21.9072251,68.6784824 21.0508294,68.1186317 20.2224466,67.5223048 L14.8917914,71.139804 C12.8825508,69.517701 11.0335022,67.7051 9.37209845,65.7294537 L12.9641291,60.4363993 C12.3232557,59.5898938 11.7212233,58.7123538 11.1606846,57.8064321 L4.85102856,59.1091024 C3.63528298,56.877607 2.62584828,54.5175073 1.84834605,52.054425 L7.19537716,48.5365243 C6.92062185,47.4776898 6.69577562,46.3987436 6.52349948,45.3023468 L0.206840255,44.0929643 C0.0700664201,42.7472471 0,41.381806 0,40 C0,38.811616 0.0518238195,37.635336 0.153334776,36.4732969 L6.4385918,35.2698845 C6.59623699,34.141085 6.80948711,33.0300987 7.07548516,31.9397828 L1.70563848,28.4074461 C2.44505438,25.9616159 3.41237621,23.6147294 4.58290232,21.3914882 L10.8610087,22.6872447 C11.4484379,21.7006734 12.0845472,20.7464635 12.7660232,19.8279282 L9.16378806,14.5203005 C10.7765643,12.5706828 12.5706828,10.7765643 14.5203005,9.16378806 L19.8279282,12.7660232 C20.7464635,12.0845472 21.7006734,11.4484379 22.6872447,10.8610087 L21.3914882,4.58290232 C23.6147294,3.41237621 25.9616159,2.44505438 28.4074461,1.70563848 L31.9397828,7.07548516 C33.0300987,6.80948711 34.141085,6.59623699 35.2698845,6.4385918 L36.4732969,0.153334776 C37.635336,0.0518238195 38.811616,0 40,0 Z" id="outer-cog-2" fill="#035199"></path>
            <path id="center-cog" d="M40,13.3333333 C40.921204,13.3333333 41.831498,13.3800443 42.7286428,13.4712268 L43.5348979,17.682333 C44.2658291,17.7971837 44.9851265,17.9470812 45.6910162,18.1302514 L48.0362834,14.565564 C49.6783382,15.0838989 51.251738,15.7568553 52.7394016,16.5673524 L51.8709547,20.7737897 C52.4749026,21.1474822 53.0599292,21.5488371 53.6242662,21.9760861 L57.1529691,19.581399 C58.4700666,20.6890015 59.6784674,21.9217006 60.7598693,23.2611943 L58.3482032,26.8149644 C58.7457545,27.3672196 59.1189883,27.9381501 59.4663366,28.5261879 L63.6476072,27.6633438 C64.4439843,29.1867602 65.0974682,30.7966915 65.5902695,32.4753483 L62.0000008,34.8372108 C62.148573,35.4727888 62.2703138,36.1186871 62.3639637,36.7736462 L66.5579968,37.5762071 C66.6299226,38.3745145 66.6666667,39.1829662 66.6666667,40 C66.6666667,40.9459403 66.6174135,41.8803768 66.5213317,42.800885 L62.3060986,43.6077441 C62.2043381,44.2418274 62.0761914,44.8670926 61.9228203,45.4823777 L65.4973968,47.8340094 C64.9788585,49.5237274 64.2969667,51.1419766 63.4701444,52.6703339 L59.2680837,51.8030126 C58.939335,52.3385419 58.5888861,52.8593154 58.2179612,53.3641089 L60.6226303,56.9073951 C59.5090106,58.2641298 58.2641298,59.5090106 56.9073951,60.6226303 L53.3641089,58.2179612 C52.8593154,58.5888861 52.3385419,58.939335 51.8030126,59.2680837 L52.6703339,63.4701444 C51.1419766,64.2969667 49.5237274,64.9788585 47.8340094,65.4973968 L45.4823777,61.9228203 C44.8670926,62.0761914 44.2418274,62.2043381 43.6077441,62.3060986 L42.8012554,66.521293 C41.8806274,66.6174003 40.9460671,66.6666667 40,66.6666667 C39.1830926,66.6666667 38.3747646,66.629934 37.5765776,66.5580302 L36.7736462,62.3639637 C36.1186871,62.2703138 35.4727888,62.148573 34.8372108,62.0000008 L32.4753483,65.5902695 C30.7966915,65.0974682 29.1867602,64.4439843 27.6633438,63.6476072 L28.5261879,59.4663366 C27.9381501,59.1189883 27.3672196,58.7457545 26.8149644,58.3482032 L23.2611943,60.7598693 C21.9217006,59.6784674 20.6890015,58.4700666 19.581399,57.1529691 L21.9760861,53.6242662 C21.5488371,53.0599292 21.1474822,52.4749026 20.7737897,51.8709547 L16.5673524,52.7394016 C15.7568553,51.251738 15.0838989,49.6783382 14.565564,48.0362834 L18.1302514,45.6910162 C17.9470812,44.9851265 17.7971837,44.2658291 17.682333,43.5348979 L13.4712268,42.7286428 C13.3800443,41.831498 13.3333333,40.921204 13.3333333,40 C13.3333333,39.207744 13.3678825,38.4235573 13.4355565,37.6488646 L17.6257279,36.8465897 C17.7308247,36.0940567 17.8729914,35.3533992 18.0503234,34.6265219 L14.4704257,32.2716307 C14.9633696,30.6410772 15.6082508,29.0764862 16.3886015,27.5943255 L20.5740058,28.4581631 C20.9656253,27.8004489 21.3896981,27.164309 21.8440155,26.5519521 L19.4425254,23.0135337 C20.5177096,21.7137885 21.7137885,20.5177096 23.0135337,19.4425254 L26.5519521,21.8440155 C27.164309,21.3896981 27.8004489,20.9656253 28.4581631,20.5740058 L27.5943255,16.3886015 C29.0764862,15.6082508 30.6410772,14.9633696 32.2716307,14.4704257 L34.6265219,18.0503234 C35.3533992,17.8729914 36.0940567,17.7308247 36.8465897,17.6257279 L37.6488646,13.4355565 C38.4235573,13.3678825 39.207744,13.3333333 40,13.3333333 Z" id="center-cog" fill="#FFFFFF"></path>
            <path id="outer-cog" d="M40,22.2222222 C40.614136,22.2222222 41.2209987,22.2533629 41.8190952,22.3141512 L42.3565986,25.1215553 C42.8438861,25.1981225 43.3234177,25.2980542 43.7940108,25.4201676 L45.3575222,23.0437094 C46.4522255,23.3892659 47.5011587,23.8379035 48.4929344,24.3782349 L47.9139698,27.1825265 C48.3166017,27.4316548 48.7066195,27.6992247 49.0828441,27.9840574 L51.4353128,26.3875993 C52.3133778,27.126001 53.1189782,27.9478004 53.8399129,28.8407962 L52.2321355,31.2099763 C52.4971697,31.5781464 52.7459922,31.9587667 52.9775577,32.3507919 L55.7650714,31.7755625 C56.2959895,32.7911735 56.7316455,33.864461 57.0601797,34.9835655 L54.6666672,36.5581405 C54.7657153,36.9818592 54.8468759,37.4124581 54.9093091,37.8490975 L57.7053312,38.3841381 C57.7532817,38.916343 57.7777778,39.4553108 57.7777778,40 C57.7777778,40.6306268 57.7449423,41.2535845 57.6808878,41.8672567 L54.8707324,42.4051627 C54.8028921,42.8278849 54.717461,43.2447284 54.6152136,43.6549185 L56.9982645,45.2226729 C56.6525724,46.3491516 56.1979778,47.4279844 55.6467629,48.4468893 L52.8453891,47.8686751 C52.6262234,48.2256946 52.3925907,48.572877 52.1453075,48.909406 L53.7484202,51.2715968 C53.0060071,52.1760865 52.1760865,53.0060071 51.2715968,53.7484202 L48.909406,52.1453075 C48.572877,52.3925907 48.2256946,52.6262234 47.8686751,52.8453891 L48.4468893,55.6467629 C47.4279844,56.1979778 46.3491516,56.6525724 45.2226729,56.9982645 L43.6549185,54.6152136 C43.2447284,54.717461 42.8278849,54.8028921 42.4051627,54.8707324 L41.8675036,57.680862 C41.2537516,57.7449335 40.6307114,57.7777778 40,57.7777778 C39.4553951,57.7777778 38.9165098,57.7532893 38.3843851,57.7053535 L37.8490975,54.9093091 C37.4124581,54.8468759 36.9818592,54.7657153 36.5581405,54.6666672 L34.9835655,57.0601797 C33.864461,56.7316455 32.7911735,56.2959895 31.7755625,55.7650714 L32.3507919,52.9775577 C31.9587667,52.7459922 31.5781464,52.4971697 31.2099763,52.2321355 L28.8407962,53.8399129 C27.9478004,53.1189782 27.126001,52.3133778 26.3875993,51.4353128 L27.9840574,49.0828441 C27.6992247,48.7066195 27.4316548,48.3166017 27.1825265,47.9139698 L24.3782349,48.4929344 C23.8379035,47.5011587 23.3892659,46.4522255 23.0437094,45.3575222 L25.4201676,43.7940108 C25.2980542,43.3234177 25.1981225,42.8438861 25.1215553,42.3565986 L22.3141512,41.8190952 C22.2533629,41.2209987 22.2222222,40.614136 22.2222222,40 C22.2222222,39.4718293 22.245255,38.9490382 22.290371,38.4325764 L25.0838186,37.8977265 C25.1538831,37.3960378 25.2486609,36.9022661 25.3668823,36.4176812 L22.9802838,34.8477538 C23.3089131,33.7607182 23.7388339,32.7176575 24.2590677,31.7295503 L27.0493372,32.3054421 C27.3104169,31.866966 27.5931321,31.4428726 27.8960103,31.0346347 L26.2950169,28.6756891 C27.0118064,27.8091924 27.8091924,27.0118064 28.6756891,26.2950169 L31.0346347,27.8960103 C31.4428726,27.5931321 31.866966,27.3104169 32.3054421,27.0493372 L31.7295503,24.2590677 C32.7176575,23.7388339 33.7607182,23.3089131 34.8477538,22.9802838 L36.4176812,25.3668823 C36.9022661,25.2486609 37.3960378,25.1538831 37.8977265,25.0838186 L38.4325764,22.290371 C38.9490382,22.245255 39.4718293,22.2222222 40,22.2222222 Z" id="inner-cog" fill="#059EDE"></path>
            <rect id="Rectangle" fill="#059EDE" x="52" y="37" width="15" height="6"></rect>
            <path d="M46.0964834,30.029262 L42.7834734,32.1471385 C40.8123006,33.4311931 39.4444444,35.1908051 39.4444444,37.0850839 C39.4444444,39.6154222 41.6679359,41.6666667 44.4107517,41.6666667 C46.1138129,41.6666667 47.5081973,41.116534 48.5660615,39.7307464 L49.0631378,39.0666563 L51.5390166,35.6865802 C51.712068,36.4312564 52.9154017,39.4594505 48.5660615,44.8396609 C47.2108278,46.7593193 44.0776962,47.841672 39.1666667,48.0867191 L27.5045323,56.6184201 L23.4590141,51.4589398 L32.7042401,41.4378365 L32.7042401,34.9364171 C34.3099077,30.0803352 38.7739888,28.4446169 46.0964834,30.029262 Z" id="tool" fill="#FFFFFF"></path>
            <rect id="Rectangle" fill="#059EDE" x="67" y="39" width="13" height="2"></rect>
        </g>
    </g>
</svg>