<?xml version="1.0" encoding="UTF-8"?>
<svg width="70px" height="70px" viewBox="0 0 70 70" version="1.1" xmlns="http://www.w3.org/2000/svg" xmlns:xlink="http://www.w3.org/1999/xlink">
    <!-- Generator: Sketch 59.1 (86144) - https://sketch.com -->
    <title>Group</title>
    <desc>Created with Sketch.</desc>
    <g id="Page-1" stroke="none" stroke-width="1" fill="none" fill-rule="evenodd">
        <g id="Group">
            <path id="outer-cog" d="M35,0 C35.6089615,0 36.2142907,0.015552043 36.8156119,0.0462806177 L37.7605591,5.21047421 C39.7471367,5.36176554 41.6801656,5.70459294 43.5412191,6.22052954 L46.3460196,1.8799941 C47.595765,2.30801944 48.8136057,2.80479054 49.995029,3.36579484 L48.9358068,8.2920276 C50.7674376,9.20566565 52.4935661,10.2992995 54.0910246,11.5497616 L58.1472889,8.74675723 C59.1254438,9.60985231 60.0549897,10.5267601 60.9312945,11.4928485 L58.2055092,15.4382988 C59.6006553,17.0269242 60.8322556,18.7627163 61.8740065,20.6193714 L66.4552245,19.6337361 C67.0205909,20.7888876 67.5241997,21.9797726 67.9617491,23.2020894 L64.1294593,25.6777643 C64.8262756,27.7299334 65.3091867,29.8809017 65.5516358,32.1041124 L69.9384154,32.9063726 C69.9792793,33.5990239 70,34.2970921 70,35 C70,35.5880095 69.9854997,36.1726322 69.9568372,36.7535302 L65.6592084,37.5395636 C65.5010687,39.8359681 65.0870942,42.0620102 64.4455793,44.1893958 L68.0582811,46.5246559 C67.6363593,47.7350509 67.1498393,48.915169 66.6028509,50.0608803 L62.4452005,49.1667412 C61.3996459,51.2186447 60.1272174,53.135607 58.6609677,54.8845752 L61.0630429,58.3610866 C60.2120079,59.3099152 59.3099152,60.2120079 58.3610866,61.0630429 L54.8845752,58.6609677 C53.135607,60.1272174 51.2186447,61.3996459 49.1667412,62.4452005 L50.0608803,66.6028509 C48.915169,67.1498393 47.7350509,67.6363593 46.5246559,68.0582811 L44.1893958,64.4455793 C42.0623193,65.087001 39.8366149,65.5009484 37.5405646,65.6591395 L36.7535302,69.9568372 C36.1726322,69.9854997 35.5880095,70 35,70 C34.2970921,70 33.5990239,69.9792793 32.9063726,69.9384154 L32.1041124,65.5516358 C29.8809017,65.3091867 27.7299334,64.8262756 25.6777643,64.1294593 L23.2020894,67.9617491 C21.9797726,67.5241997 20.7888876,67.0205909 19.6337361,66.4552245 L20.6193714,61.8740065 C18.7627163,60.8322556 17.0269242,59.6006553 15.4382988,58.2055092 L11.4928485,60.9312945 C10.5267601,60.0549897 9.60985231,59.1254438 8.74675723,58.1472889 L11.5497616,54.0910246 C10.2992995,52.4935661 9.20566565,50.7674376 8.2920276,48.9358068 L3.36579484,49.995029 C2.80479054,48.8136057 2.30801944,47.595765 1.8799941,46.3460196 L6.22052954,43.5412191 C5.70459294,41.6801656 5.36176554,39.7471367 5.21047421,37.7605591 L0.0462806177,36.8156119 C0.015552043,36.2142907 0,35.6089615 0,35 C0,34.2761401 0.021974389,33.5574125 0.0652924754,32.8444481 L5.32718307,31.8810473 C5.55049273,29.9648518 5.95255803,28.1032228 6.51626258,26.3132768 L1.97531149,23.3794264 C2.41920819,22.1178798 2.93334573,20.8894294 3.51302966,19.6987698 L8.85274615,20.8478562 C9.75679976,19.2034771 10.8090409,17.6520711 11.9914835,16.2116241 L8.87856255,11.7041812 C9.76613258,10.7096532 10.7096532,9.76613258 11.7041812,8.87856255 L16.2116241,11.9914835 C17.6520711,10.8090409 19.2034771,9.75679976 20.8478562,8.85274615 L19.6987698,3.51302966 C20.8894294,2.93334573 22.1178798,2.41920819 23.3794264,1.97531149 L26.3132768,6.51626258 C28.1032228,5.95255803 29.9648518,5.55049273 31.8810473,5.32718307 L32.8444481,0.0652924754 C33.5574125,0.021974389 34.2761401,0 35,0 Z" id="Center-Cog" fill="#035199"></path>
            <path id="center-cog" d="M35,8 C35.5812515,8 36.1582132,8.01836708 36.7303363,8.05455253 L37.5362636,12.4590002 C39.0787912,12.5764797 40.579736,12.8426942 42.0247874,13.2433334 L44.3401354,9.65916013 C45.2772789,10.0046889 46.1899808,10.4007181 47.0749402,10.8439467 L46.2119931,14.8511588 C47.634448,15.5606291 48.9749554,16.4099175 50.2155156,17.3810239 L53.3631449,15.2060294 C54.1091679,15.8984471 54.815984,16.6325243 55.4798933,17.4045609 L53.4099973,20.4001299 C54.4931396,21.633501 55.4493155,22.9811214 56.258106,24.4225717 L59.5367995,23.7173527 C59.9706914,24.6593957 60.3519279,25.6306941 60.6767371,26.6274759 L58.0093835,28.3502645 C58.5503298,29.9434393 58.9252304,31.6133065 59.1134721,33.3392534 L61.9764751,33.862568 C61.9921068,34.2397654 62,34.6189609 62,35 C62,35.6936143 61.9738454,36.3811198 61.9224686,37.0615842 L59.1970391,37.5594601 C59.074274,39.3424245 58.7528739,41.0707594 58.2548071,42.7224967 L60.4204024,44.1214246 C60.0519346,45.1481689 59.6230284,46.1461146 59.1379729,47.1109725 L56.7019379,46.5865597 C55.8902087,48.1796943 54.9023318,49.6680641 53.7639692,51.0260071 L55.1261098,52.9987136 C54.3944687,53.8162722 53.6137453,54.5889853 52.7885715,55.3122212 L50.8309168,53.9590595 C49.4729738,55.0974221 47.984604,56.085299 46.3914694,56.8970282 L46.8970688,59.2443198 C45.9168092,59.7262596 44.9030612,60.150499 43.8602554,60.5126073 L42.5274064,58.4498974 C40.875978,58.9478711 39.1479806,59.2692441 37.3653702,59.3920605 L36.9005012,61.9341501 C36.2726701,61.9778071 35.6389268,62 35,62 C34.5408147,62 34.0843066,61.9885373 33.6307464,61.9658824 L33.1441631,59.3085624 C31.4182162,59.1203207 29.748349,58.7454202 28.1551742,58.2044738 L26.5705781,60.6581261 C25.5445771,60.3212574 24.5457044,59.9245642 23.5780855,59.472172 L24.2274814,56.4531963 C22.7860311,55.6444059 21.4384107,54.6882299 20.2050395,53.6050876 L17.4435916,55.5133933 C16.6444757,54.8288266 15.8858282,54.0983755 15.1717317,53.3261231 L17.1859336,50.4106059 C16.2148272,49.1700458 15.3655388,47.8295383 14.6560685,46.4070834 L10.913538,47.2128968 C10.4508822,46.3022489 10.0383515,45.3618481 9.67957828,44.3953267 L13.0482431,42.2198778 C12.6476039,40.7748263 12.3813893,39.2738816 12.2639098,37.731354 L8.07038064,36.9645655 C8.0237288,36.3157897 8,35.6606659 8,35 C8,34.6516118 8.0065984,34.3047647 8.01967706,33.959577 L12.3544202,33.1671812 C12.527794,31.6790173 12.8400314,30.2332393 13.2778323,28.843147 L9.41581938,26.3486368 C9.73206457,25.4130948 10.0981849,24.5005324 10.5110162,23.6141135 L15.0917643,24.6001215 C15.7937911,23.3231966 16.6109101,22.1184802 17.5291496,20.9999435 L14.812946,17.0696187 C15.4585197,16.3433219 16.1426955,15.6521016 16.8622554,14.9991756 L20.8048532,17.7242399 C21.9233898,16.8060004 23.1281063,15.9888815 24.4050312,15.2868546 L23.3993758,10.6121825 C24.2701739,10.1972268 25.1666957,9.82753646 26.085898,9.50615486 L28.6480567,13.4729226 C30.038149,13.0351217 31.483927,12.7228844 32.9720909,12.5495105 L33.7996093,8.02620667 C34.1975638,8.00879618 34.5977547,8 35,8 Z" id="Outer-Cog" fill="#FFFFFF" transform="translate(35.000000, 35.000000) rotate(-11.250000) translate(-35.000000, -35.000000) "></path>
        </g>
    </g>
</svg>