<?xml version="1.0" encoding="UTF-8"?>
<svg width="100px" height="100px" viewBox="0 0 144 144" version="1.1" xmlns="http://www.w3.org/2000/svg" xmlns:xlink="http://www.w3.org/1999/xlink">
    <g id="Page-1" stroke="none" stroke-width="1" fill="none" fill-rule="evenodd">
        <g id="logo-mark">
            <path id="outer-cog" d="M72,0 C74.4872508,0 76.9450447,0.126119556 79.3673357,0.372312459 L81.5442243,11.7422991 C83.5177386,12.0523961 85.4598416,12.4571193 87.3657437,12.9516789 L93.6979651,3.32702289 C98.1315132,4.72652691 102.379693,6.54350937 106.396384,8.73185141 L104.051578,20.0892322 C105.682237,21.0982019 107.261809,22.1818602 108.785519,23.3354324 L118.313017,16.8697772 C121.86918,19.8603039 125.131862,23.1885915 128.051647,26.8052245 L121.540149,36.4004038 C122.613537,37.8914929 123.621268,39.4330053 124.559109,41.0207072 L135.848539,38.6910281 C137.998758,42.8042526 139.763164,47.1510672 141.093728,51.6834404 L131.400002,58.0604692 C131.801147,59.7765297 132.129847,61.5204552 132.382702,63.2888448 L143.706591,65.4557591 C143.900791,67.6111891 144,69.7940088 144,72 C144,74.5540387 143.867016,77.0770174 143.607596,79.5623896 L132.226466,81.740909 C131.951713,83.452934 131.605717,85.1411499 131.191615,86.8024199 L140.842971,93.1518254 C139.442918,97.7140641 137.60181,102.083337 135.36939,106.209902 L124.023826,103.868134 C123.136205,105.314063 122.189992,106.720152 121.188495,108.083094 L127.681102,117.649967 C124.674329,121.31315 121.31315,124.674329 117.649967,127.681102 L108.083094,121.188495 C106.720152,122.189992 105.314063,123.136205 103.868134,124.023826 L106.209902,135.36939 C102.083337,137.60181 97.7140641,139.442918 93.1518254,140.842971 L86.8024199,131.191615 C85.1411499,131.605717 83.452934,131.951713 81.740909,132.226466 L79.5633895,143.607491 C77.077694,143.866981 74.5543812,144 72,144 C69.7943501,144 67.6118645,143.900822 65.4567596,143.706682 L63.2888448,132.382702 C61.5204552,132.129847 59.7765297,131.801147 58.0604692,131.400002 L51.6834404,141.093728 C47.1510672,139.763164 42.8042526,137.998758 38.6910281,135.848539 L41.0207072,124.559109 C39.4330053,123.621268 37.8914929,122.613537 36.4004038,121.540149 L26.8052245,128.051647 C23.1885915,125.131862 19.8603039,121.86918 16.8697772,118.313017 L23.3354324,108.785519 C22.1818602,107.261809 21.0982019,105.682237 20.0892322,104.051578 L8.73185141,106.396384 C6.54350937,102.379693 4.72652691,98.1315132 3.32702289,93.6979651 L12.9516789,87.3657437 C12.4571193,85.4598416 12.0523961,83.5177386 11.7422991,81.5442243 L0.372312459,79.3673357 C0.126119556,76.9450447 0,74.4872508 0,72 C0,69.8609087 0.093282875,67.7436048 0.276002597,65.6519343 L11.5894652,63.4857921 C11.8732266,61.453953 12.2570768,59.4541777 12.7358733,57.491609 L3.07014927,51.1334029 C4.40109789,46.7309085 6.14227718,42.5065128 8.24922417,38.5046788 L19.5498157,40.8370405 C20.6071883,39.0612121 21.752185,37.3436342 22.9788418,35.6902707 L16.4948185,26.1365409 C19.3978158,22.6272291 22.6272291,19.3978158 26.1365409,16.4948185 L35.6902707,22.9788418 C37.3436342,21.752185 39.0612121,20.6071883 40.8370405,19.5498157 L38.5046788,8.24922417 C42.5065128,6.14227718 46.7309085,4.40109789 51.1334029,3.07014927 L57.491609,12.7358733 C59.4541777,12.2570768 61.453953,11.8732266 63.4857921,11.5894652 L65.6519343,0.276002597 C67.7436048,0.093282875 69.8609087,0 72,0 Z" id="outer-cog" fill="#035199"></path>
            <path id="center-cog" d="M72,24 C73.6581672,24 75.2966965,24.0840797 76.9115571,24.2482083 L78.3628162,31.8281994 C79.6784924,32.0349307 80.9732278,32.3047462 82.2438292,32.6344526 L86.4653101,26.2180153 C89.4210088,27.1510179 92.2531284,28.3623396 94.9309229,29.8212343 L93.3677185,37.3928215 C94.4548246,38.0654679 95.5078726,38.7879068 96.5236792,39.5569549 L102.875344,35.2465181 C105.24612,37.2402026 107.421241,39.459061 109.367765,41.8701497 L105.026766,48.2669359 C105.742358,49.2609953 106.414179,50.2886702 107.039406,51.3471381 L114.565693,49.7940188 C115.999172,52.5361684 117.175443,55.4340448 118.062485,58.455627 L111.600001,62.7069794 C111.867431,63.8510198 112.086565,65.0136368 112.255135,66.1925632 L119.804394,67.6371727 C119.933861,69.074126 120,70.5293392 120,72 C120,73.7026925 119.911344,75.3846783 119.738397,77.0415931 L112.150977,78.4939393 C111.967809,79.6352893 111.737145,80.7607666 111.461077,81.8682799 L117.895314,86.1012169 C116.961945,89.1427094 115.73454,92.0555579 114.24626,94.8066011 L106.682551,93.2454227 C106.090803,94.2093754 105.459995,95.1467678 104.79233,96.0553961 L109.120735,102.433311 C107.116219,104.875434 104.875434,107.116219 102.433311,109.120735 L96.0553961,104.79233 C95.1467678,105.459995 94.2093754,106.090803 93.2454227,106.682551 L94.8066011,114.24626 C92.0555579,115.73454 89.1427094,116.961945 86.1012169,117.895314 L81.8682799,111.461077 C80.7607666,111.737145 79.6352893,111.967809 78.4939393,112.150977 L77.0422597,119.738327 C75.3851294,119.91132 73.7029208,120 72,120 C70.5295667,120 69.0745764,119.933881 67.6378398,119.804454 L66.1925632,112.255135 C65.0136368,112.086565 63.8510198,111.867431 62.7069794,111.600001 L58.455627,118.062485 C55.4340448,117.175443 52.5361684,115.999172 49.7940188,114.565693 L51.3471381,107.039406 C50.2886702,106.414179 49.2609953,105.742358 48.2669359,105.026766 L41.8701497,109.367765 C39.459061,107.421241 37.2402026,105.24612 35.2465181,102.875344 L39.5569549,96.5236792 C38.7879068,95.5078726 38.0654679,94.4548246 37.3928215,93.3677185 L29.8212343,94.9309229 C28.3623396,92.2531284 27.1510179,89.4210088 26.2180153,86.4653101 L32.6344526,82.2438292 C32.3047462,80.9732278 32.0349307,79.6784924 31.8281994,78.3628162 L24.2482083,76.9115571 C24.0840797,75.2966965 24,73.6581672 24,72 C24,70.5739391 24.0621886,69.1624032 24.1840017,67.7679562 L31.7263102,66.3238614 C31.9154844,64.969302 32.1713845,63.6361185 32.4905822,62.3277394 L26.0467662,58.0889353 C26.9340653,55.153939 28.0948515,52.3376752 29.4994828,49.6697859 L37.0332104,51.2246937 C37.7381255,50.0408081 38.5014566,48.8957561 39.3192279,47.7935138 L34.9965457,41.4243606 C36.9318772,39.0848194 39.0848194,36.9318772 41.4243606,34.9965457 L47.7935138,39.3192279 C48.8957561,38.5014566 50.0408081,37.7381255 51.2246937,37.0332104 L49.6697859,29.4994828 C52.3376752,28.0948515 55.153939,26.9340653 58.0889353,26.0467662 L62.3277394,32.4905822 C63.6361185,32.1713845 64.969302,31.9154844 66.3238614,31.7263102 L67.7679562,24.1840017 C69.1624032,24.0621886 70.5739391,24 72,24 Z" id="center-cog" fill="#FFFFFF"></path>
            <path id="inner-cog" d="M72,40 C73.1054448,40 74.1977977,40.0560531 75.2743714,40.1654722 L76.2418775,45.2187996 C77.1189949,45.3566205 77.9821518,45.5364975 78.8292194,45.7563017 L81.64354,41.4786768 C83.6140059,42.1006786 85.5020856,42.9082264 87.287282,43.8808228 L86.2451457,48.9285477 C86.9698831,49.3769786 87.671915,49.8586045 88.3491195,50.3713033 L92.583563,47.4976788 C94.16408,48.8268018 95.6141608,50.3060407 96.9118432,51.9134331 L94.0178438,56.1779573 C94.4949054,56.8406635 94.9427859,57.5257801 95.3596039,58.2314254 L100.377129,57.1960125 C101.332781,59.0241123 102.116962,60.9560299 102.708323,62.970418 L98.4000009,65.804653 C98.5782876,66.5673465 98.7243766,67.3424245 98.8367564,68.1283755 L103.869596,69.0914485 C103.955907,70.0494174 104,71.0195595 104,72 C104,73.1351283 103.940896,74.2564522 103.825598,75.361062 L98.7673183,76.3292929 C98.6452058,77.0901929 98.4914297,77.8405111 98.3073844,78.5788533 L102.596876,81.4008113 C101.97463,83.4284729 101.15636,85.3703719 100.164173,87.2044007 L95.1217004,86.1636152 C94.727202,86.8062503 94.3066633,87.4311785 93.8615535,88.0369307 L96.7471564,92.2888742 C95.4108127,93.9169557 93.9169557,95.4108127 92.2888742,96.7471564 L88.0369307,93.8615535 C87.4311785,94.3066633 86.8062503,94.727202 86.1636152,95.1217004 L87.2044007,100.164173 C85.3703719,101.15636 83.4284729,101.97463 81.4008113,102.596876 L78.5788533,98.3073844 C77.8405111,98.4914297 77.0901929,98.6452058 76.3292929,98.7673183 L75.3615064,103.825552 C74.2567529,103.94088 73.1352805,104 72,104 C71.0197112,104 70.0497176,103.955921 69.0918932,103.869636 L68.1283755,98.8367564 C67.3424245,98.7243766 66.5673465,98.5782876 65.804653,98.4000009 L62.970418,102.708323 C60.9560299,102.116962 59.0241123,101.332781 57.1960125,100.377129 L58.2314254,95.3596039 C57.5257801,94.9427859 56.8406635,94.4949054 56.1779573,94.0178438 L51.9134331,96.9118432 C50.3060407,95.6141608 48.8268018,94.16408 47.4976788,92.583563 L50.3713033,88.3491195 C49.8586045,87.671915 49.3769786,86.9698831 48.9285477,86.2451457 L43.8808228,87.287282 C42.9082264,85.5020856 42.1006786,83.6140059 41.4786768,81.64354 L45.7563017,78.8292194 C45.5364975,77.9821518 45.3566205,77.1189949 45.2187996,76.2418775 L40.1654722,75.2743714 C40.0560531,74.1977977 40,73.1054448 40,72 C40,71.0492928 40.0414591,70.1082688 40.1226678,69.1786375 L45.1508734,68.2159076 C45.2769896,67.312868 45.4475897,66.424079 45.6603881,65.5518262 L41.3645108,62.7259568 C41.9560435,60.7692927 42.729901,58.8917835 43.6663219,57.1131906 L48.688807,58.1497958 C49.1587503,57.3605387 49.6676378,56.5971708 50.2128186,55.8623425 L47.3310304,51.6162404 C48.6212515,50.0565462 50.0565462,48.6212515 51.6162404,47.3310304 L55.8623425,50.2128186 C56.5971708,49.6676378 57.3605387,49.1587503 58.1497958,48.688807 L57.1131906,43.6663219 C58.8917835,42.729901 60.7692927,41.9560435 62.7259568,41.3645108 L65.5518262,45.6603881 C66.424079,45.4475897 67.312868,45.2769896 68.2159076,45.1508734 L69.1786375,40.1226678 C70.1082688,40.0414591 71.0492928,40 72,40 Z" id="white-cog" fill="#3D9EC3"></path>
            <path d="M82.9736702,54.0526716 L77.0102522,57.8648493 C73.4621411,60.1761476 71,63.3434492 71,66.753151 C71,71.30776 75.0022847,75 79.9393531,75 C83.0048633,75 85.5147552,74.0097611 87.4189107,71.5153435 L88.3136481,70.3199813 L92.7702298,64.2358444 C93.0817224,65.5762616 95.247723,71.0270109 87.4189107,80.7113896 C84.97949,84.1667748 79.3398532,86.1150097 70.5,86.5560944 L49.5081581,101.913156 L42.2262254,92.6260916 L58.8676322,74.5881057 L58.8676322,62.8855508 C61.7578338,54.1446034 69.7931798,51.2003104 82.9736702,54.0526716 Z" id="tool" fill="#FFFFFF"></path>
        </g>
    </g>
</svg>