<?xml version="1.0" encoding="UTF-8"?>
<svg width="240px" height="80px" viewBox="0 0 240 80" version="1.1" xmlns="http://www.w3.org/2000/svg" xmlns:xlink="http://www.w3.org/1999/xlink">
    <!-- Generator: Sketch 59.1 (86144) - https://sketch.com -->
    <title>logo-text</title>
    <desc>Created with Sketch.</desc>
    <g id="Page-1" stroke="none" stroke-width="1" fill="none" fill-rule="evenodd">
        <g id="logo-text" transform="translate(0.000000, -2.000000)">
            <path d="M8.449,13.006 L8.449,28 L11.746,28 L11.746,21.532 L17.815,21.532 L17.815,28 L21.112,28 L21.112,13.006 L17.815,13.006 L17.815,18.76 L11.746,18.76 L11.746,13.006 L8.449,13.006 Z M28.4416005,20.062 L28.4416005,15.568 L31.0036005,15.568 C31.3816024,15.568 31.7455987,15.5959997 32.0956005,15.652 C32.4456022,15.7080003 32.7535991,15.8164992 33.0196005,15.9775 C33.2856018,16.1385008 33.4990997,16.3659985 33.6601005,16.66 C33.8211013,16.9540015 33.9016005,17.3389976 33.9016005,17.815 C33.9016005,18.2910024 33.8211013,18.6759985 33.6601005,18.97 C33.4990997,19.2640015 33.2856018,19.4914992 33.0196005,19.6525 C32.7535991,19.8135008 32.4456022,19.9219997 32.0956005,19.978 C31.7455987,20.0340003 31.3816024,20.062 31.0036005,20.062 L28.4416005,20.062 Z M25.1446005,13.006 L25.1446005,28 L28.4416005,28 L28.4416005,22.624 L31.9066005,22.624 C32.8446051,22.624 33.6425972,22.4875014 34.3006005,22.2145 C34.9586037,21.9414986 35.4940984,21.5810022 35.9071005,21.133 C36.3201025,20.6849978 36.6210995,20.1705029 36.8101005,19.5895 C36.9991014,19.0084971 37.0936005,18.417003 37.0936005,17.815 C37.0936005,17.1989969 36.9991014,16.6040029 36.8101005,16.03 C36.6210995,15.4559971 36.3201025,14.9450022 35.9071005,14.497 C35.4940984,14.0489978 34.9586037,13.6885014 34.3006005,13.4155 C33.6425972,13.1424986 32.8446051,13.006 31.9066005,13.006 L25.1446005,13.006 Z M40.2862009,13.006 L40.2862009,28 L51.6682009,28 L51.6682009,25.228 L43.5832009,25.228 L43.5832009,21.553 L50.8492009,21.553 L50.8492009,18.991 L43.5832009,18.991 L43.5832009,15.778 L51.5002009,15.778 L51.5002009,13.006 L40.2862009,13.006 Z M62.0014018,13.006 L62.0014018,28 L65.2984018,28 L65.2984018,13.006 L62.0014018,13.006 Z M69.3310023,13.006 L69.3310023,28 L72.4180023,28 L72.4180023,17.962 L72.4600023,17.962 L78.6970023,28 L81.9940023,28 L81.9940023,13.006 L78.9070023,13.006 L78.9070023,23.065 L78.8650023,23.065 L72.6070023,13.006 L69.3310023,13.006 Z M89.3236028,25.228 L89.3236028,15.778 L91.6756028,15.778 C92.4876068,15.778 93.1701,15.8934988 93.7231028,16.1245 C94.2761055,16.3555012 94.7206011,16.6879978 95.0566028,17.122 C95.3926044,17.5560022 95.634102,18.077497 95.7811028,18.6865 C95.9281035,19.295503 96.0016028,19.9779962 96.0016028,20.734 C96.0016028,21.5600041 95.8966038,22.2599971 95.6866028,22.834 C95.4766017,23.4080029 95.1966045,23.8734982 94.8466028,24.2305 C94.496601,24.5875018 94.097605,24.8429992 93.6496028,24.997 C93.2016005,25.1510008 92.7396051,25.228 92.2636028,25.228 L89.3236028,25.228 Z M86.0266028,13.006 L86.0266028,28 L92.4946028,28 C93.6426085,28 94.6400985,27.8075019 95.4871028,27.4225 C96.334107,27.0374981 97.0410999,26.5090034 97.6081028,25.837 C98.1751056,25.1649966 98.5986014,24.3670046 98.8786028,23.443 C99.1586042,22.5189954 99.2986028,21.5110055 99.2986028,20.419 C99.2986028,19.1729938 99.1271045,18.0880046 98.7841028,17.164 C98.441101,16.2399954 97.9651058,15.4700031 97.3561028,14.854 C96.7470997,14.2379969 96.0261069,13.7760015 95.1931028,13.468 C94.3600986,13.1599985 93.4606076,13.006 92.4946028,13.006 L86.0266028,13.006 Z M115.448203,22.33 L115.448203,13.006 L112.151203,13.006 L112.151203,22.33 C112.151203,23.4500056 111.927205,24.2724974 111.479203,24.7975 C111.031201,25.3225026 110.219209,25.585 109.043203,25.585 C108.3712,25.585 107.835705,25.4905009 107.436703,25.3015 C107.037701,25.1124991 106.726204,24.8675015 106.502203,24.5665 C106.278202,24.2654985 106.131204,23.919002 106.061203,23.527 C105.991203,23.134998 105.956203,22.736002 105.956203,22.33 L105.956203,13.006 L102.659203,13.006 L102.659203,22.33 C102.659203,24.3740102 103.215698,25.8859951 104.328703,26.866 C105.441709,27.8460049 107.013193,28.336 109.043203,28.336 C111.045213,28.336 112.613198,27.8425049 113.747203,26.8555 C114.881209,25.8684951 115.448203,24.3600101 115.448203,22.33 Z M121.664804,23.023 L118.472804,23.023 C118.458804,23.9470046 118.626802,24.7449966 118.976804,25.417 C119.326805,26.0890034 119.799301,26.6419978 120.394304,27.076 C120.989307,27.5100022 121.6753,27.828499 122.452304,28.0315 C123.229308,28.234501 124.0308,28.336 124.856804,28.336 C125.878809,28.336 126.7783,28.2170012 127.555304,27.979 C128.332308,27.7409988 128.983301,27.4085021 129.508304,26.9815 C130.033306,26.5544979 130.428802,26.0470029 130.694804,25.459 C130.960805,24.8709971 131.093804,24.2340034 131.093804,23.548 C131.093804,22.7079958 130.915305,22.0185027 130.558304,21.4795 C130.201302,20.9404973 129.777806,20.5100016 129.287804,20.188 C128.797801,19.8659984 128.304306,19.6315007 127.807304,19.4845 L127.407874,19.3696426 C127.09716,19.283214 126.841805,19.2200002 126.641804,19.18 L124.363304,18.592 L124.363304,18.592 C123.782301,18.4379992 123.327305,18.2840008 122.998304,18.13 C122.669302,17.9759992 122.448804,17.8080009 122.336804,17.626 C122.224803,17.4439991 122.168804,17.2060015 122.168804,16.912 C122.168804,16.5899984 122.238803,16.324001 122.378804,16.114 C122.518804,15.903999 122.697303,15.7290007 122.914304,15.589 C123.131305,15.4489993 123.372802,15.3510003 123.638804,15.295 C123.904805,15.2389997 124.170802,15.211 124.436804,15.211 C124.842806,15.211 125.217302,15.2459997 125.560304,15.316 C125.903305,15.3860003 126.207802,15.5049992 126.473804,15.673 C126.739805,15.8410008 126.953303,16.0719985 127.114304,16.366 C127.275304,16.6600015 127.369804,17.0309978 127.397804,17.479 L130.589804,17.479 C130.589804,16.6109957 130.425305,15.872503 130.096304,15.2635 C129.767302,14.654497 129.322806,14.154002 128.762804,13.762 C128.202801,13.369998 127.562307,13.0865009 126.841304,12.9115 C126.1203,12.7364991 125.367808,12.649 124.583804,12.649 C123.9118,12.649 123.239807,12.7399991 122.567804,12.922 C121.8958,13.1040009 121.293806,13.3839981 120.761804,13.762 C120.229801,14.1400019 119.799305,14.6124972 119.470304,15.1795 C119.141302,15.7465028 118.976804,16.4149962 118.976804,17.185 C118.976804,17.8710034 119.106302,18.4554976 119.365304,18.9385 C119.624305,19.4215024 119.963802,19.8239984 120.383804,20.146 C120.803806,20.4680016 121.279801,20.730499 121.811804,20.9335 C122.343806,21.136501 122.889801,21.3079993 123.449804,21.448 C123.813806,21.5506672 124.174693,21.6471112 124.53247,21.7373332 L125.066804,21.868 C125.598806,21.9940006 126.074802,22.1409992 126.494804,22.309 C126.914806,22.4770008 127.254302,22.6869987 127.513304,22.939 C127.772305,23.1910013 127.901804,23.519998 127.901804,23.926 C127.901804,24.3040019 127.803805,24.6154988 127.607804,24.8605 C127.411803,25.1055012 127.166805,25.2979993 126.872804,25.438 C126.578802,25.5780007 126.263805,25.6724998 125.927804,25.7215 C125.591802,25.7705002 125.276805,25.795 124.982804,25.795 C124.548802,25.795 124.128806,25.7425005 123.722804,25.6375 C123.316802,25.5324995 122.963305,25.3715011 122.662304,25.1545 C122.361302,24.9374989 122.119805,24.6540018 121.937804,24.304 C121.755803,23.9539982 121.664804,23.5270025 121.664804,23.023 Z M137.499404,15.778 L137.499404,28 L140.796404,28 L140.796404,15.778 L145.290404,15.778 L145.290404,13.006 L133.005404,13.006 L133.005404,15.778 L137.499404,15.778 Z M151.444005,19.789 L151.444005,15.568 L155.056005,15.568 C155.812008,15.568 156.379003,15.7324984 156.757005,16.0615 C157.135006,16.3905016 157.324005,16.9189964 157.324005,17.647 C157.324005,18.4030038 157.135006,18.9489983 156.757005,19.285 C156.379003,19.6210017 155.812008,19.789 155.056005,19.789 L151.444005,19.789 Z M148.147005,13.006 L148.147005,28 L151.444005,28 L151.444005,22.141 L154.741005,22.141 C155.567009,22.141 156.162003,22.3229982 156.526005,22.687 C156.890006,23.0510018 157.128004,23.6249961 157.240005,24.409 C157.303005,24.8605023 157.354192,25.3277493 157.393567,25.810749 L157.429005,26.299 C157.471005,26.9570033 157.583004,27.5239976 157.765005,28 L161.062005,28 C160.908004,27.789999 160.792505,27.5345015 160.715505,27.2335 C160.638504,26.9324985 160.582505,26.6140017 160.547505,26.278 C160.524171,26.0539989 160.505505,25.8331111 160.491505,25.6153337 L160.432005,24.451 L160.432005,24.451 C160.404004,24.0729981 160.351505,23.6950019 160.274505,23.317 C160.197504,22.9389981 160.075005,22.5925016 159.907005,22.2775 C159.739004,21.9624984 159.522006,21.6895012 159.256005,21.4585 C158.990003,21.2274988 158.654007,21.0560006 158.248005,20.944 L158.248005,20.902 C159.088009,20.5659983 159.693503,20.0760032 160.064505,19.432 C160.435506,18.7879968 160.621005,18.0250044 160.621005,17.143 C160.621005,16.5689971 160.519506,16.0335025 160.316505,15.5365 C160.113504,15.0394975 159.819507,14.6020019 159.434505,14.224 C159.049503,13.8459981 158.587507,13.5485011 158.048505,13.3315 C157.509502,13.1144989 156.904008,13.006 156.232005,13.006 L148.147005,13.006 Z M167.551605,22.162 L167.551605,28 L170.848605,28 L170.848605,22.246 L176.413605,13.006 L172.738605,13.006 L169.252605,18.928 L165.745605,13.006 L162.049605,13.006 L167.551605,22.162 Z M185.780806,13.006 L185.780806,28 L196.385806,28 L196.385806,25.228 L189.077806,25.228 L189.077806,13.006 L185.780806,13.006 Z M200.754406,15.778 L200.754406,28 L204.051406,28 L204.051406,15.778 L208.545406,15.778 L208.545406,13.006 L196.260406,13.006 L196.260406,15.778 L200.754406,15.778 Z M214.699007,25.228 L214.699007,15.778 L217.051007,15.778 C217.863011,15.778 218.545504,15.8934988 219.098507,16.1245 C219.65151,16.3555012 220.096005,16.6879978 220.432007,17.122 C220.768009,17.5560022 221.009506,18.077497 221.156507,18.6865 C221.303508,19.295503 221.377007,19.9779962 221.377007,20.734 C221.377007,21.5600041 221.272008,22.2599971 221.062007,22.834 C220.852006,23.4080029 220.572009,23.8734982 220.222007,24.2305 C219.872005,24.5875018 219.473009,24.8429992 219.025007,24.997 C218.577005,25.1510008 218.115009,25.228 217.639007,25.228 L214.699007,25.228 Z M211.402007,13.006 L211.402007,28 L217.870007,28 C219.018013,28 220.015503,27.8075019 220.862507,27.4225 C221.709511,27.0374981 222.416504,26.5090034 222.983507,25.837 C223.55051,25.1649966 223.974005,24.3670046 224.254007,23.443 C224.534008,22.5189954 224.674007,21.5110055 224.674007,20.419 C224.674007,19.1729938 224.502509,18.0880046 224.159507,17.164 C223.816505,16.2399954 223.34051,15.4700031 222.731507,14.854 C222.122504,14.2379969 221.401511,13.7760015 220.568507,13.468 C219.735503,13.1599985 218.836012,13.006 217.870007,13.006 L211.402007,13.006 Z M7.803,58.146 L9.178,58.146 L9.178,61.27 L12.753,61.27 L12.753,58.146 L14.128,58.146 L14.128,66 L12.753,66 L12.753,62.458 L9.178,62.458 L9.178,66 L7.803,66 L7.803,58.146 Z M18.5668932,62.92 L15.6188932,58.146 L17.2138932,58.146 L19.2928932,61.666 L21.3388932,58.146 L22.8788932,58.146 L19.9418932,62.92 L19.9418932,66 L18.5668932,66 L18.5668932,62.92 Z M24.3917863,58.146 L27.6477863,58.146 C28.2491227,58.146 28.7697841,58.2486656 29.2097863,58.454 C29.6497885,58.6593344 30.0091183,58.9398316 30.2877863,59.2955 C30.5664544,59.6511684 30.773619,60.0673309 30.9092863,60.544 C31.0449537,61.0206691 31.1127863,61.5303306 31.1127863,62.073 C31.1127863,62.6156694 31.0449537,63.1253309 30.9092863,63.602 C30.773619,64.0786691 30.5664544,64.4948316 30.2877863,64.8505 C30.0091183,65.2061684 29.6497885,65.4866656 29.2097863,65.692 C28.7697841,65.8973344 28.2491227,66 27.6477863,66 L24.3917863,66 L24.3917863,58.146 Z M25.7667863,64.878 L27.1197863,64.878 C27.6551223,64.878 28.0932846,64.8065007 28.4342863,64.6635 C28.775288,64.5204993 29.042952,64.3225013 29.2372863,64.0695 C29.4316206,63.8164987 29.5636193,63.5195017 29.6332863,63.1785 C29.7029533,62.8374983 29.7377863,62.469002 29.7377863,62.073 C29.7377863,61.676998 29.7029533,61.3085017 29.6332863,60.9675 C29.5636193,60.6264983 29.4316206,60.3295013 29.2372863,60.0765 C29.042952,59.8234987 28.775288,59.6255007 28.4342863,59.4825 C28.0932846,59.3394993 27.6551223,59.268 27.1197863,59.268 L25.7667863,59.268 L25.7667863,64.878 Z M33.0766795,58.146 L36.8276795,58.146 C37.6930171,58.146 38.3420106,58.3329981 38.7746795,58.707 C39.2073483,59.0810019 39.4236795,59.6016633 39.4236795,60.269 C39.4236795,60.6430019 39.36868,60.9528321 39.2586795,61.1985 C39.1486789,61.4441679 39.0203469,61.6421659 38.8736795,61.7925 C38.7270121,61.9428341 38.5821802,62.0509997 38.4391795,62.117 L38.2535543,62.1995001 C38.2013045,62.2215 38.1586796,62.2379999 38.1256795,62.249 L38.1256795,62.271 C38.2430134,62.2856667 38.3695121,62.322333 38.5051795,62.381 C38.6408468,62.439667 38.7673456,62.533166 38.8846795,62.6615 C39.0020134,62.789834 39.0991791,62.9566656 39.1761795,63.162 C39.2377798,63.3262675 39.2747396,63.523386 39.2870595,63.7533595 L39.2916795,63.932 C39.2916795,64.3940023 39.3265125,64.8138314 39.3961795,65.1915 C39.4658465,65.5691686 39.5740121,65.8386659 39.7206795,66 L38.2466795,66 C38.1440123,65.8313325 38.0835129,65.6443344 38.0651795,65.439 C38.0529572,65.3021104 38.0448091,65.1684814 38.040735,65.0381113 L38.0376795,64.845 C38.0376795,64.4856649 38.0156797,64.1758346 37.9716795,63.9155 C37.9276793,63.6551654 37.8470134,63.4388342 37.7296795,63.2665 C37.6123456,63.0941658 37.4528471,62.9676671 37.2511795,62.887 C37.0495118,62.8063329 36.7910144,62.766 36.4756795,62.766 L34.4516795,62.766 L34.4516795,66 L33.0766795,66 L33.0766795,58.146 Z M34.4516795,61.721 L36.7066795,61.721 C37.1466817,61.721 37.480345,61.616501 37.7076795,61.4075 C37.9350139,61.198499 38.0486795,60.8850021 38.0486795,60.467 C38.0486795,60.2176654 38.0120132,60.0141675 37.9386795,59.8565 C37.8653458,59.6988325 37.7645135,59.5760004 37.6361795,59.488 C37.5078455,59.3999996 37.3611803,59.3413335 37.1961795,59.312 C37.0311787,59.2826665 36.8606804,59.268 36.6846795,59.268 L34.4516795,59.268 L34.4516795,61.721 Z M43.6645726,58.146 L45.1275726,58.146 L48.1525726,66 L46.6785726,66 L45.9415726,63.921 L42.8065726,63.921 L42.0695726,66 L40.6505726,66 L43.6645726,58.146 Z M43.1805726,62.876 L45.5785726,62.876 L44.4015726,59.499 L44.3685726,59.499 L43.1805726,62.876 Z M49.5554658,58.146 L50.9304658,58.146 L50.9304658,62.722 C50.9304658,62.9860013 50.943299,63.2536653 50.9689658,63.525 C50.9946326,63.7963347 51.0679652,64.0401656 51.1889658,64.2565 C51.3099664,64.4728344 51.4932979,64.650666 51.7389658,64.79 C51.9846337,64.929334 52.3311302,64.999 52.7784658,64.999 C53.2258014,64.999 53.5722979,64.929334 53.8179658,64.79 C54.0636337,64.650666 54.2469652,64.4728344 54.3679658,64.2565 C54.4889664,64.0401656 54.562299,63.7963347 54.5879658,63.525 C54.6136326,63.2536653 54.6264658,62.9860013 54.6264658,62.722 L54.6264658,58.146 L56.0014658,58.146 L56.0014658,63.173 C56.0014658,63.6790025 55.9244666,64.1189981 55.7704658,64.493 C55.616465,64.8670019 55.3983005,65.1804987 55.1159658,65.4335 C54.833631,65.6865013 54.4944678,65.8753327 54.0984658,66 C53.7024638,66.1246673 53.2624682,66.187 52.7784658,66.187 C52.2944634,66.187 51.8544678,66.1246673 51.4584658,66 C51.0624638,65.8753327 50.7233005,65.6865013 50.4409658,65.4335 C50.158631,65.1804987 49.9404666,64.8670019 49.7864658,64.493 C49.632465,64.1189981 49.5554658,63.6790025 49.5554658,63.173 L49.5554658,58.146 Z M58.3283589,58.146 L59.7033589,58.146 L59.7033589,64.812 L63.6963589,64.812 L63.6963589,66 L58.3283589,66 L58.3283589,58.146 Z M65.3852521,58.146 L66.7602521,58.146 L66.7602521,66 L65.3852521,66 L65.3852521,58.146 Z M74.4881453,60.643 C74.4294783,60.4156655 74.3488124,60.2066676 74.2461453,60.016 C74.1434781,59.8253324 74.0114794,59.660334 73.8501453,59.521 C73.6888111,59.381666 73.4999797,59.2735004 73.2836453,59.1965 C73.0673109,59.1194996 72.8161467,59.081 72.5301453,59.081 C72.1121432,59.081 71.7509801,59.1653325 71.4466453,59.334 C71.1423104,59.5026675 70.8948129,59.7281653 70.7041453,60.0105 C70.5134776,60.2928347 70.3723124,60.6136649 70.2806453,60.973 C70.1889781,61.3323351 70.1431453,61.6989981 70.1431453,62.073 C70.1431453,62.4470019 70.1889781,62.8136649 70.2806453,63.173 C70.3723124,63.5323351 70.5134776,63.8531653 70.7041453,64.1355 C70.8948129,64.4178347 71.1423104,64.6433325 71.4466453,64.812 C71.7509801,64.9806675 72.1121432,65.065 72.5301453,65.065 C72.8381468,65.065 73.1094774,65.0118339 73.3441453,64.9055 C73.5788131,64.7991661 73.7804778,64.6525009 73.9491453,64.4655 C74.1178128,64.2784991 74.2498115,64.0603346 74.3451453,63.811 C74.4404791,63.5616654 74.5028118,63.2940014 74.5321453,63.008 L75.8741453,63.008 C75.8448118,63.4773357 75.7439795,63.9063314 75.5716453,64.295 C75.3993111,64.6836686 75.1664801,65.0191653 74.8731453,65.3015 C74.5798105,65.5838347 74.2351472,65.8019992 73.8391453,65.956 C73.4431433,66.1100008 73.0068143,66.187 72.5301453,66.187 C71.9434757,66.187 71.4173143,66.0788344 70.9516453,65.8625 C70.4859763,65.6461656 70.0918135,65.3510019 69.7691453,64.977 C69.446477,64.6029981 69.1989795,64.1666692 69.0266453,63.668 C68.8543111,63.1693308 68.7681453,62.6376695 68.7681453,62.073 C68.7681453,61.5156639 68.8543111,60.9876692 69.0266453,60.489 C69.1989795,59.9903308 69.446477,59.5540019 69.7691453,59.18 C70.0918135,58.8059981 70.4859763,58.5090011 70.9516453,58.289 C71.4173143,58.0689989 71.9434757,57.959 72.5301453,57.959 C72.9701475,57.959 73.3844767,58.0194994 73.7731453,58.1405 C74.1618139,58.2615006 74.5046438,58.4374988 74.8016453,58.6685 C75.0986468,58.8995012 75.338811,59.1799984 75.5221453,59.51 C75.7054795,59.8400017 75.819145,60.2176645 75.8631453,60.643 L74.4881453,60.643 Z M77.5740384,62.414 L80.7750384,62.414 L80.7750384,63.602 L77.5740384,63.602 L77.5740384,62.414 Z M82.8929316,58.146 L86.3579316,58.146 C86.9152677,58.146 87.3699298,58.2266659 87.7219316,58.388 C88.0739333,58.5493341 88.345264,58.7509988 88.5359316,58.993 C88.7265992,59.2350012 88.8567646,59.4989986 88.9264316,59.785 C88.9960986,60.0710014 89.0309316,60.3349988 89.0309316,60.577 C89.0309316,60.8190012 88.9960986,61.0811653 88.9264316,61.3635 C88.8567646,61.6458347 88.7265992,61.9079988 88.5359316,62.15 C88.345264,62.3920012 88.0739333,62.5918325 87.7219316,62.7495 C87.3699298,62.9071675 86.9152677,62.986 86.3579316,62.986 L84.2679316,62.986 L84.2679316,66 L82.8929316,66 L82.8929316,58.146 Z M84.2679316,61.864 L86.2809316,61.864 C86.4349324,61.864 86.5925974,61.8420002 86.7539316,61.798 C86.9152657,61.7539998 87.0637642,61.6825005 87.1994316,61.5835 C87.3350989,61.4844995 87.4450978,61.3525008 87.5294316,61.1875 C87.6137653,61.0224992 87.6559316,60.8153346 87.6559316,60.566 C87.6559316,60.3093321 87.6192653,60.0966675 87.5459316,59.928 C87.4725979,59.7593325 87.3735989,59.6255005 87.2489316,59.5265 C87.1242643,59.4274995 86.9812657,59.3596668 86.8199316,59.323 C86.6585974,59.2863332 86.4862658,59.268 86.3029316,59.268 L84.2679316,59.268 L84.2679316,61.864 Z M90.9178247,58.146 L92.3698247,58.146 L95.9558247,63.932 L95.9778247,63.932 L95.9778247,58.146 L97.2868247,58.146 L97.2868247,66 L95.8348247,66 L92.2598247,60.225 L92.2268247,60.225 L92.2268247,66 L90.9178247,66 L90.9178247,58.146 Z M99.6577179,58.146 L105.311718,58.146 L105.311718,59.334 L101.032718,59.334 L101.032718,61.391 L104.992718,61.391 L104.992718,62.513 L101.032718,62.513 L101.032718,64.812 L105.388718,64.812 L105.388718,66 L99.6577179,66 L99.6577179,58.146 Z M107.242611,58.146 L108.617611,58.146 L108.617611,62.722 C108.617611,62.9860013 108.630444,63.2536653 108.656111,63.525 C108.681778,63.7963347 108.75511,64.0401656 108.876111,64.2565 C108.997112,64.4728344 109.180443,64.650666 109.426111,64.79 C109.671779,64.929334 110.018275,64.999 110.465611,64.999 C110.912947,64.999 111.259443,64.929334 111.505111,64.79 C111.750779,64.650666 111.93411,64.4728344 112.055111,64.2565 C112.176112,64.0401656 112.249444,63.7963347 112.275111,63.525 C112.300778,63.2536653 112.313611,62.9860013 112.313611,62.722 L112.313611,58.146 L113.688611,58.146 L113.688611,63.173 C113.688611,63.6790025 113.611612,64.1189981 113.457611,64.493 C113.30361,64.8670019 113.085446,65.1804987 112.803111,65.4335 C112.520776,65.6865013 112.181613,65.8753327 111.785611,66 C111.389609,66.1246673 110.949613,66.187 110.465611,66.187 C109.981609,66.187 109.541613,66.1246673 109.145611,66 C108.749609,65.8753327 108.410446,65.6865013 108.128111,65.4335 C107.845776,65.1804987 107.627612,64.8670019 107.473611,64.493 C107.31961,64.1189981 107.242611,63.6790025 107.242611,63.173 L107.242611,58.146 Z M115.993504,58.146 L117.929504,58.146 L120.096504,64.295 L120.118504,64.295 L122.230504,58.146 L124.144504,58.146 L124.144504,66 L122.835504,66 L122.835504,59.939 L122.813504,59.939 L120.635504,66 L119.502504,66 L117.324504,59.939 L117.302504,59.939 L117.302504,66 L115.993504,66 L115.993504,58.146 Z M128.638397,58.146 L130.101397,58.146 L133.126397,66 L131.652397,66 L130.915397,63.921 L127.780397,63.921 L127.043397,66 L125.624397,66 L128.638397,58.146 Z M128.154397,62.876 L130.552397,62.876 L129.375397,59.499 L129.342397,59.499 L128.154397,62.876 Z M132.857291,58.146 L139.215291,58.146 L139.215291,59.334 L136.718291,59.334 L136.718291,66 L135.343291,66 L135.343291,59.334 L132.857291,59.334 L132.857291,58.146 Z M140.871184,58.146 L142.246184,58.146 L142.246184,66 L140.871184,66 L140.871184,58.146 Z M149.974077,60.643 C149.91541,60.4156655 149.834744,60.2066676 149.732077,60.016 C149.62941,59.8253324 149.497411,59.660334 149.336077,59.521 C149.174743,59.381666 148.985911,59.2735004 148.769577,59.1965 C148.553242,59.1194996 148.302078,59.081 148.016077,59.081 C147.598075,59.081 147.236912,59.1653325 146.932577,59.334 C146.628242,59.5026675 146.380744,59.7281653 146.190077,60.0105 C145.999409,60.2928347 145.858244,60.6136649 145.766577,60.973 C145.67491,61.3323351 145.629077,61.6989981 145.629077,62.073 C145.629077,62.4470019 145.67491,62.8136649 145.766577,63.173 C145.858244,63.5323351 145.999409,63.8531653 146.190077,64.1355 C146.380744,64.4178347 146.628242,64.6433325 146.932577,64.812 C147.236912,64.9806675 147.598075,65.065 148.016077,65.065 C148.324078,65.065 148.595409,65.0118339 148.830077,64.9055 C149.064745,64.7991661 149.266409,64.6525009 149.435077,64.4655 C149.603744,64.2784991 149.735743,64.0603346 149.831077,63.811 C149.926411,63.5616654 149.988743,63.2940014 150.018077,63.008 L151.360077,63.008 C151.330743,63.4773357 151.229911,63.9063314 151.057577,64.295 C150.885243,64.6836686 150.652412,65.0191653 150.359077,65.3015 C150.065742,65.5838347 149.721079,65.8019992 149.325077,65.956 C148.929075,66.1100008 148.492746,66.187 148.016077,66.187 C147.429407,66.187 146.903246,66.0788344 146.437577,65.8625 C145.971908,65.6461656 145.577745,65.3510019 145.255077,64.977 C144.932409,64.6029981 144.684911,64.1666692 144.512577,63.668 C144.340243,63.1693308 144.254077,62.6376695 144.254077,62.073 C144.254077,61.5156639 144.340243,60.9876692 144.512577,60.489 C144.684911,59.9903308 144.932409,59.5540019 145.255077,59.18 C145.577745,58.8059981 145.971908,58.5090011 146.437577,58.289 C146.903246,58.0689989 147.429407,57.959 148.016077,57.959 C148.456079,57.959 148.870408,58.0194994 149.259077,58.1405 C149.647745,58.2615006 149.990575,58.4374988 150.287577,58.6685 C150.584578,58.8995012 150.824743,59.1799984 151.008077,59.51 C151.191411,59.8400017 151.305077,60.2176645 151.349077,60.643 L149.974077,60.643 Z M153.05997,62.414 L156.26097,62.414 L156.26097,63.602 L153.05997,63.602 L153.05997,62.414 Z M158.378863,58.146 L164.032863,58.146 L164.032863,59.334 L159.753863,59.334 L159.753863,61.391 L163.713863,61.391 L163.713863,62.513 L159.753863,62.513 L159.753863,64.812 L164.109863,64.812 L164.109863,66 L158.378863,66 L158.378863,58.146 Z M166.051756,58.146 L167.426756,58.146 L167.426756,64.812 L171.419756,64.812 L171.419756,66 L166.051756,66 L166.051756,58.146 Z M173.108649,58.146 L178.762649,58.146 L178.762649,59.334 L174.483649,59.334 L174.483649,61.391 L178.443649,61.391 L178.443649,62.513 L174.483649,62.513 L174.483649,64.812 L178.839649,64.812 L178.839649,66 L173.108649,66 L173.108649,58.146 Z M186.083543,60.643 C186.024876,60.4156655 185.94421,60.2066676 185.841543,60.016 C185.738875,59.8253324 185.606877,59.660334 185.445543,59.521 C185.284209,59.381666 185.095377,59.2735004 184.879043,59.1965 C184.662708,59.1194996 184.411544,59.081 184.125543,59.081 C183.707541,59.081 183.346377,59.1653325 183.042043,59.334 C182.737708,59.5026675 182.49021,59.7281653 182.299543,60.0105 C182.108875,60.2928347 181.96771,60.6136649 181.876043,60.973 C181.784376,61.3323351 181.738543,61.6989981 181.738543,62.073 C181.738543,62.4470019 181.784376,62.8136649 181.876043,63.173 C181.96771,63.5323351 182.108875,63.8531653 182.299543,64.1355 C182.49021,64.4178347 182.737708,64.6433325 183.042043,64.812 C183.346377,64.9806675 183.707541,65.065 184.125543,65.065 C184.433544,65.065 184.704875,65.0118339 184.939543,64.9055 C185.17421,64.7991661 185.375875,64.6525009 185.544543,64.4655 C185.71321,64.2784991 185.845209,64.0603346 185.940543,63.811 C186.035876,63.5616654 186.098209,63.2940014 186.127543,63.008 L187.469543,63.008 C187.440209,63.4773357 187.339377,63.9063314 187.167043,64.295 C186.994708,64.6836686 186.761877,65.0191653 186.468543,65.3015 C186.175208,65.5838347 185.830545,65.8019992 185.434543,65.956 C185.038541,66.1100008 184.602212,66.187 184.125543,66.187 C183.538873,66.187 183.012712,66.0788344 182.547043,65.8625 C182.081374,65.6461656 181.687211,65.3510019 181.364543,64.977 C181.041874,64.6029981 180.794377,64.1666692 180.622043,63.668 C180.449708,63.1693308 180.363543,62.6376695 180.363543,62.073 C180.363543,61.5156639 180.449708,60.9876692 180.622043,60.489 C180.794377,59.9903308 181.041874,59.5540019 181.364543,59.18 C181.687211,58.8059981 182.081374,58.5090011 182.547043,58.289 C183.012712,58.0689989 183.538873,57.959 184.125543,57.959 C184.565545,57.959 184.979874,58.0194994 185.368543,58.1405 C185.757211,58.2615006 186.100041,58.4374988 186.397043,58.6685 C186.694044,58.8995012 186.934208,59.1799984 187.117543,59.51 C187.300877,59.8400017 187.414542,60.2176645 187.458543,60.643 L186.083543,60.643 Z M188.718436,58.146 L195.076436,58.146 L195.076436,59.334 L192.579436,59.334 L192.579436,66 L191.204436,66 L191.204436,59.334 L188.718436,59.334 L188.718436,58.146 Z M196.732329,58.146 L200.483329,58.146 C201.348667,58.146 201.99766,58.3329981 202.430329,58.707 C202.862998,59.0810019 203.079329,59.6016633 203.079329,60.269 C203.079329,60.6430019 203.02433,60.9528321 202.914329,61.1985 C202.804328,61.4441679 202.675996,61.6421659 202.529329,61.7925 C202.382662,61.9428341 202.23783,62.0509997 202.094829,62.117 L201.909204,62.1995001 C201.856954,62.2215 201.814329,62.2379999 201.781329,62.249 L201.781329,62.271 C201.898663,62.2856667 202.025162,62.322333 202.160829,62.381 C202.296496,62.439667 202.422995,62.533166 202.540329,62.6615 C202.657663,62.789834 202.754829,62.9566656 202.831829,63.162 C202.908829,63.3673344 202.947329,63.6239985 202.947329,63.932 C202.947329,64.3940023 202.982162,64.8138314 203.051829,65.1915 C203.121496,65.5691686 203.229662,65.8386659 203.376329,66 L201.902329,66 C201.799662,65.8313325 201.739162,65.6443344 201.720829,65.439 C201.708607,65.3021104 201.700459,65.1684814 201.696384,65.0381113 L201.693329,64.845 C201.693329,64.4856649 201.671329,64.1758346 201.627329,63.9155 C201.583329,63.6551654 201.502663,63.4388342 201.385329,63.2665 C201.267995,63.0941658 201.108497,62.9676671 200.906829,62.887 C200.705161,62.8063329 200.446664,62.766 200.131329,62.766 L198.107329,62.766 L198.107329,66 L196.732329,66 L196.732329,58.146 Z M198.107329,61.721 L200.362329,61.721 C200.802331,61.721 201.135994,61.616501 201.363329,61.4075 C201.590663,61.198499 201.704329,60.8850021 201.704329,60.467 C201.704329,60.2176654 201.667663,60.0141675 201.594329,59.8565 C201.520995,59.6988325 201.420163,59.5760004 201.291829,59.488 C201.163495,59.3999996 201.01683,59.3413335 200.851829,59.312 C200.686828,59.2826665 200.51633,59.268 200.340329,59.268 L198.107329,59.268 L198.107329,61.721 Z M208.563222,59.081 C208.14522,59.081 207.784057,59.1653325 207.479722,59.334 C207.175387,59.5026675 206.92789,59.7281653 206.737222,60.0105 C206.546554,60.2928347 206.405389,60.6136649 206.313722,60.973 C206.222055,61.3323351 206.176222,61.6989981 206.176222,62.073 C206.176222,62.4470019 206.222055,62.8136649 206.313722,63.173 C206.405389,63.5323351 206.546554,63.8531653 206.737222,64.1355 C206.92789,64.4178347 207.175387,64.6433325 207.479722,64.812 C207.784057,64.9806675 208.14522,65.065 208.563222,65.065 C208.981224,65.065 209.342387,64.9806675 209.646722,64.812 C209.951057,64.6433325 210.198554,64.4178347 210.389222,64.1355 C210.57989,63.8531653 210.721055,63.5323351 210.812722,63.173 C210.904389,62.8136649 210.950222,62.4470019 210.950222,62.073 C210.950222,61.6989981 210.904389,61.3323351 210.812722,60.973 C210.721055,60.6136649 210.57989,60.2928347 210.389222,60.0105 C210.198554,59.7281653 209.951057,59.5026675 209.646722,59.334 C209.342387,59.1653325 208.981224,59.081 208.563222,59.081 Z M208.563222,57.959 C209.149892,57.959 209.676053,58.0689989 210.141722,58.289 C210.607391,58.5090011 211.001554,58.8059981 211.324222,59.18 C211.64689,59.5540019 211.894388,59.9903308 212.066722,60.489 C212.239056,60.9876692 212.325222,61.5156639 212.325222,62.073 C212.325222,62.6376695 212.239056,63.1693308 212.066722,63.668 C211.894388,64.1666692 211.64689,64.6029981 211.324222,64.977 C211.001554,65.3510019 210.607391,65.6461656 210.141722,65.8625 C209.676053,66.0788344 209.149892,66.187 208.563222,66.187 C207.976553,66.187 207.450391,66.0788344 206.984722,65.8625 C206.519053,65.6461656 206.12489,65.3510019 205.802222,64.977 C205.479554,64.6029981 205.232056,64.1666692 205.059722,63.668 C204.887388,63.1693308 204.801222,62.6376695 204.801222,62.073 C204.801222,61.5156639 204.887388,60.9876692 205.059722,60.489 C205.232056,59.9903308 205.479554,59.5540019 205.802222,59.18 C206.12489,58.8059981 206.519053,58.5090011 206.984722,58.289 C207.450391,58.0689989 207.976553,57.959 208.563222,57.959 Z M214.267115,58.146 L215.719115,58.146 L219.305115,63.932 L219.327115,63.932 L219.327115,58.146 L220.636115,58.146 L220.636115,66 L219.184115,66 L215.609115,60.225 L215.576115,60.225 L215.576115,66 L214.267115,66 L214.267115,58.146 Z M223.007008,58.146 L224.382008,58.146 L224.382008,66 L223.007008,66 L223.007008,58.146 Z M232.109902,60.643 C232.051235,60.4156655 231.970569,60.2066676 231.867902,60.016 C231.765234,59.8253324 231.633236,59.660334 231.471902,59.521 C231.310567,59.381666 231.121736,59.2735004 230.905402,59.1965 C230.689067,59.1194996 230.437903,59.081 230.151902,59.081 C229.7339,59.081 229.372736,59.1653325 229.068402,59.334 C228.764067,59.5026675 228.516569,59.7281653 228.325902,60.0105 C228.135234,60.2928347 227.994069,60.6136649 227.902402,60.973 C227.810734,61.3323351 227.764902,61.6989981 227.764902,62.073 C227.764902,62.4470019 227.810734,62.8136649 227.902402,63.173 C227.994069,63.5323351 228.135234,63.8531653 228.325902,64.1355 C228.516569,64.4178347 228.764067,64.6433325 229.068402,64.812 C229.372736,64.9806675 229.7339,65.065 230.151902,65.065 C230.459903,65.065 230.731234,65.0118339 230.965902,64.9055 C231.200569,64.7991661 231.402234,64.6525009 231.570902,64.4655 C231.739569,64.2784991 231.871568,64.0603346 231.966902,63.811 C232.062235,63.5616654 232.124568,63.2940014 232.153902,63.008 L233.495902,63.008 C233.466568,63.4773357 233.365736,63.9063314 233.193402,64.295 C233.021067,64.6836686 232.788236,65.0191653 232.494902,65.3015 C232.201567,65.5838347 231.856904,65.8019992 231.460902,65.956 C231.0649,66.1100008 230.628571,66.187 230.151902,66.187 C229.565232,66.187 229.039071,66.0788344 228.573402,65.8625 C228.107733,65.6461656 227.71357,65.3510019 227.390902,64.977 C227.068233,64.6029981 226.820736,64.1666692 226.648402,63.668 C226.476067,63.1693308 226.389902,62.6376695 226.389902,62.073 C226.389902,61.5156639 226.476067,60.9876692 226.648402,60.489 C226.820736,59.9903308 227.068233,59.5540019 227.390902,59.18 C227.71357,58.8059981 228.107733,58.5090011 228.573402,58.289 C229.039071,58.0689989 229.565232,57.959 230.151902,57.959 C230.591904,57.959 231.006233,58.0194994 231.394902,58.1405 C231.78357,58.2615006 232.1264,58.4374988 232.423402,58.6685 C232.720403,58.8995012 232.960567,59.1799984 233.143902,59.51 C233.327236,59.8400017 233.440901,60.2176645 233.484902,60.643 L232.109902,60.643 Z" id="HPEINDUSTRYLTDHYDRAULIC-PNEUMATIC-ELECTRONIC" fill="#2E2E2E" fill-rule="nonzero"></path>
            <line x1="7" y1="42.8245614" x2="232.5" y2="42.5" id="Line" stroke="#3D9EC3" stroke-linecap="square"></line>
        </g>
    </g>
</svg>