<svg class="logo-text" viewBox="0 0 312 80" version="1.1" xmlns="http://www.w3.org/2000/svg" xmlns:xlink="http://www.w3.org/1999/xlink">
    <!-- Generator: Sketch 59.1 (86144) - https://sketch.com -->
    <title>logo-text</title>
    <desc>Created with Sketch.</desc>
    <g id="Page-1" stroke="none" stroke-width="1" fill="none" fill-rule="evenodd">
        <g id="logo-text">
            <rect id="Rectangle" fill="#059EDE" x="0" y="39" width="312" height="2"></rect>
            <path d="M5.59423828,5.32958984 L8.83300781,5.32958984 L8.83300781,15.1103516 L21.1435547,15.1103516 L21.1435547,5.32958984 L24.3823242,5.32958984 L24.3823242,29 L21.1435547,29 L21.1435547,17.9301758 L8.83300781,17.9301758 L8.83300781,29 L5.59423828,29 L5.59423828,5.32958984 Z M29.0859672,5.32958984 L39.7368461,5.32958984 C41.8423254,5.32958984 43.539574,5.92308977 44.828643,7.11010742 C46.1177119,8.29712508 46.7622367,9.96483301 46.7622367,12.1132812 C46.7622367,13.9609467 46.1875354,15.5695732 45.0381156,16.939209 C43.8886958,18.3088447 42.1216236,18.9936523 39.7368461,18.9936523 L32.2925102,18.9936523 L32.2925102,29 L29.0859672,29 L29.0859672,5.32958984 Z M43.5234672,12.1293945 C43.5234672,10.3891515 42.8789424,9.20752265 41.5898734,8.58447266 C40.8808855,8.25146318 39.9087273,8.08496094 38.6733695,8.08496094 L32.2925102,8.08496094 L32.2925102,16.2866211 L38.6733695,16.2866211 C40.1128299,16.2866211 41.2810311,15.9804718 42.1780082,15.3681641 C43.0749853,14.7558563 43.5234672,13.6762773 43.5234672,12.1293945 Z M50.5313094,5.32958984 L67.7886336,5.32958984 L67.7886336,8.22998047 L53.6572859,8.22998047 L53.6572859,15.4165039 L66.725157,15.4165039 L66.725157,18.1557617 L53.6572859,18.1557617 L53.6572859,26.1801758 L68.0303328,26.1801758 L68.0303328,29 L50.5313094,29 L50.5313094,5.32958984 Z M80.9986539,5.32958984 L84.2374234,5.32958984 L84.2374234,29 L80.9986539,29 L80.9986539,5.32958984 Z M88.8766133,5.32958984 L92.6632344,5.32958984 L104.619289,24.5043945 L104.619289,5.32958984 L107.664699,5.32958984 L107.664699,29 L104.071438,29 L91.9381367,9.84130859 L91.9381367,29 L88.8766133,29 L88.8766133,5.32958984 Z M121.230647,26.2607422 C122.315613,26.2607422 123.207206,26.1479503 123.905452,25.9223633 C125.151552,25.5034159 126.172049,24.6977599 126.966975,23.5053711 C127.600767,22.5493116 128.057306,21.3247145 128.336604,19.831543 C128.497738,18.9399369 128.578303,18.1127968 128.578303,17.3500977 C128.578303,14.4174658 127.995545,12.1401448 126.830012,10.5180664 C125.664479,8.89598798 123.7873,8.08496094 121.19842,8.08496094 L115.510432,8.08496094 L115.510432,26.2607422 L121.230647,26.2607422 Z M112.287776,5.32958984 L121.875178,5.32958984 C125.130077,5.32958984 127.654466,6.48436345 129.44842,8.79394531 C131.049014,10.8779401 131.849299,13.547347 131.849299,16.8022461 C131.849299,19.3159305 131.376648,21.5878805 130.43133,23.6181641 C128.766283,27.2060726 125.903519,29 121.842952,29 L112.287776,29 L112.287776,5.32958984 Z M138.889368,5.32958984 L138.889368,19.9604492 C138.889368,21.6792078 139.21163,23.1079045 139.856165,24.246582 C140.812224,25.9653406 142.423536,26.824707 144.690149,26.824707 C147.407936,26.824707 149.255574,25.8955171 150.233118,24.0371094 C150.759488,23.0273387 151.022669,21.6684656 151.022669,19.9604492 L151.022669,5.32958984 L154.277552,5.32958984 L154.277552,18.6230469 C154.277552,21.5341942 153.885466,23.7739179 153.101282,25.3422852 C151.661822,28.1997213 148.944075,29.628418 144.947962,29.628418 C140.951848,29.628418 138.239473,28.1997213 136.810755,25.3422852 C136.026571,23.7739179 135.634485,21.5341942 135.634485,18.6230469 L135.634485,5.32958984 L138.889368,5.32958984 Z M160.769769,21.3623047 C160.844964,22.7050848 161.161856,23.795406 161.720452,24.6333008 C162.783934,26.201668 164.658427,26.9858398 167.343987,26.9858398 C168.547119,26.9858398 169.642811,26.8139666 170.631097,26.4702148 C172.543216,25.8041959 173.499261,24.611825 173.499261,22.8930664 C173.499261,21.6039975 173.096433,20.6855496 172.290765,20.1376953 C171.474355,19.6005833 170.196047,19.1333028 168.455804,18.7358398 L165.249261,18.0107422 C163.154524,17.5380836 161.672117,17.0170927 160.801995,16.4477539 C159.298082,15.4594677 158.546136,13.9824317 158.546136,12.0166016 C158.546136,9.8896378 159.281968,8.14404979 160.753655,6.77978516 C162.225343,5.41552052 164.309306,4.73339844 167.005609,4.73339844 C169.487066,4.73339844 171.5952,5.3322694 173.330071,6.5300293 C175.064943,7.72778919 175.932366,9.64256497 175.932366,12.2744141 L172.919183,12.2744141 C172.758049,11.0068296 172.414303,10.0346714 171.887933,9.35791016 C170.910389,8.12255242 169.250737,7.50488281 166.908929,7.50488281 C165.018294,7.50488281 163.659421,7.90233978 162.832269,8.69726562 C162.005116,9.49219147 161.591546,10.4160104 161.591546,11.46875 C161.591546,12.6289121 162.07494,13.4775364 163.041741,14.0146484 C163.642176,14.340308 164.960864,14.7430916 166.997841,15.2230103 L170.663323,16.0610352 C172.263917,16.4262714 173.499257,16.9257781 174.369378,17.5595703 C175.873292,18.6660212 176.625237,20.2719621 176.625237,22.3774414 C176.625237,24.9985483 175.671878,26.8730412 173.76513,28.0009766 C171.858382,29.1289119 169.642828,29.6928711 167.118402,29.6928711 C164.175027,29.6928711 161.870851,28.9409255 160.205804,27.4370117 C158.540757,25.9438402 157.724358,23.9189581 157.756585,21.3623047 L160.769769,21.3623047 Z M197.345482,5.32958984 L197.345482,8.14941406 L189.369408,8.14941406 L189.369408,29 L186.114525,29 L186.114525,8.14941406 L178.138451,8.14941406 L178.138451,5.32958984 L197.345482,5.32958984 Z M210.71807,16.1738281 C212.221984,16.1738281 213.411669,15.8730499 214.287162,15.2714844 C215.162655,14.6699189 215.600395,13.5849609 215.600395,12.0166016 C215.600395,10.3300697 214.988096,9.18066712 213.76348,8.56835938 C213.108204,8.24609214 212.232724,8.08496094 211.137016,8.08496094 L203.305961,8.08496094 L203.305961,16.1738281 L210.71807,16.1738281 Z M200.099418,5.32958984 L211.056449,5.32958984 C212.861146,5.32958984 214.348924,5.59277081 215.519828,6.11914062 C217.743472,7.1289113 218.855277,8.99266219 218.855277,11.7104492 C218.855277,13.1284251 218.562556,14.2885697 217.977104,15.190918 C217.391651,16.0932662 216.572568,16.8183566 215.519828,17.3662109 C216.443661,17.7421894 217.139211,18.2363251 217.606498,18.8486328 C218.073786,19.4609406 218.334281,20.454583 218.387992,21.8295898 L218.500785,25.0039062 C218.533012,25.9062545 218.608206,26.5776345 218.726371,27.0180664 C218.919731,27.7700233 219.263478,28.2534169 219.757621,28.4682617 L219.757621,29 L215.82598,29 C215.718558,28.7958974 215.632621,28.5327165 215.568168,28.2104492 C215.503715,27.888182 215.450004,27.2651413 215.407035,26.3413086 L215.213676,22.3935547 C215.13848,20.846672 214.563779,19.8100612 213.489555,19.2836914 C212.877247,18.9936509 211.915831,18.8486328 210.605277,18.8486328 L203.305961,18.8486328 L203.305961,29 L200.099418,29 L200.099418,5.32958984 Z M220.56185,5.32958984 L224.300131,5.32958984 L231.099936,16.7055664 L237.899741,5.32958984 L241.654135,5.32958984 L232.711264,19.4609375 L232.711264,29 L229.504721,29 L229.504721,19.4609375 L220.56185,5.32958984 Z M251.867085,5.32958984 L255.073628,5.32958984 L255.073628,26.1801758 L267.061909,26.1801758 L267.061909,29 L251.867085,29 L251.867085,5.32958984 Z M284.446705,5.32958984 L284.446705,8.14941406 L276.47063,8.14941406 L276.47063,29 L273.215748,29 L273.215748,8.14941406 L265.239673,8.14941406 L265.239673,5.32958984 L284.446705,5.32958984 Z M295.901812,26.2607422 C296.986779,26.2607422 297.878372,26.1479503 298.576617,25.9223633 C299.822717,25.5034159 300.843215,24.6977599 301.638141,23.5053711 C302.271933,22.5493116 302.728471,21.3247145 303.00777,19.831543 C303.168903,18.9399369 303.249469,18.1127968 303.249469,17.3500977 C303.249469,14.4174658 302.666711,12.1401448 301.501178,10.5180664 C300.335645,8.89598798 298.458466,8.08496094 295.869586,8.08496094 L290.181598,8.08496094 L290.181598,26.2607422 L295.901812,26.2607422 Z M286.958941,5.32958984 L296.546344,5.32958984 C299.801243,5.32958984 302.325632,6.48436345 304.119586,8.79394531 C305.72018,10.8779401 306.520465,13.547347 306.520465,16.8022461 C306.520465,19.3159305 306.047813,21.5878805 305.102496,23.6181641 C303.437449,27.2060726 300.574684,29 296.514117,29 L286.958941,29 L286.958941,5.32958984 Z" id="HPEINDUSTRYLTD" fill="#035199" fill-rule="nonzero"></path>
            <path d="M37.3239582,52.675293 L38.5998371,52.675293 L38.5998371,56.5283203 L43.4494465,56.5283203 L43.4494465,52.675293 L44.7253254,52.675293 L44.7253254,62 L43.4494465,62 L43.4494465,57.6391602 L38.5998371,57.6391602 L38.5998371,62 L37.3239582,62 L37.3239582,52.675293 Z M45.3913707,52.675293 L46.864027,52.675293 L49.5427379,57.1567383 L52.2214488,52.675293 L53.7004527,52.675293 L50.1775035,58.2421875 L50.1775035,62 L48.9143199,62 L48.9143199,58.2421875 L45.3913707,52.675293 Z M57.8005801,60.9208984 C58.2279911,60.9208984 58.5792245,60.8764653 58.854291,60.7875977 C59.3451789,60.6225578 59.7471931,60.3051781 60.0603457,59.8354492 C60.3100214,59.4588197 60.4898699,58.9764027 60.5998965,58.3881836 C60.6633734,58.0369449 60.6951113,57.7111018 60.6951113,57.4106445 C60.6951113,56.2553653 60.4655401,55.3582389 60.0063906,54.7192383 C59.5472412,54.0802377 58.8077466,53.7607422 57.7878848,53.7607422 L55.5471621,53.7607422 L55.5471621,60.9208984 L57.8005801,60.9208984 Z M54.2776309,52.675293 L58.0544863,52.675293 C59.3367193,52.675293 60.3311755,53.1302038 61.0378848,54.0400391 C61.6684218,54.8610067 61.9836855,55.9125912 61.9836855,57.1948242 C61.9836855,58.1850635 61.7974895,59.0800741 61.4250918,59.8798828 C60.769164,61.2933013 59.6414084,62 58.041791,62 L54.2776309,62 L54.2776309,52.675293 Z M67.3787348,56.9472656 C67.9711856,56.9472656 68.4398496,56.8287772 68.7847406,56.5917969 C69.1296317,56.3548165 69.3020746,55.9274119 69.3020746,55.3095703 C69.3020746,54.645179 69.0608661,54.192384 68.5784418,53.9511719 C68.3203025,53.8242181 67.9754166,53.7607422 67.5437738,53.7607422 L64.4588129,53.7607422 L64.4588129,56.9472656 L67.3787348,56.9472656 Z M63.1956293,52.675293 L67.5120355,52.675293 C68.2229766,52.675293 68.809071,52.7789703 69.2703363,52.9863281 C70.1463173,53.3841166 70.5843012,54.1183215 70.5843012,55.1889648 C70.5843012,55.7475614 70.4689866,56.2045881 70.2383539,56.5600586 C70.0077212,56.9155291 69.6850519,57.2011708 69.2703363,57.4169922 C69.6342704,57.5651049 69.9082749,57.7597644 70.0923578,58.0009766 C70.2764408,58.2421887 70.3790602,58.6336236 70.4002191,59.175293 L70.4446527,60.4257812 L70.4629904,60.7509229 C70.478977,60.947465 70.5024868,61.1035693 70.5335199,61.2192383 C70.6096922,61.5154637 70.7451075,61.7058915 70.9397699,61.7905273 L70.9397699,62 L69.3909418,62 C69.3486239,61.919596 69.31477,61.8159186 69.2893793,61.6889648 C69.2639885,61.5620111 69.2428299,61.3165708 69.2259027,60.9526367 L69.1497309,59.3974609 C69.1201083,58.7880829 68.8937108,58.3797211 68.4705316,58.1723633 C68.2293195,58.0581049 67.8505798,58.0009766 67.3343012,58.0009766 L64.4588129,58.0009766 L64.4588129,62 L63.1956293,62 L63.1956293,52.675293 Z M76.652202,58.1787109 L75.2366746,54.059082 L73.7322801,58.1787109 L76.652202,58.1787109 Z M74.5765184,52.675293 L76.004741,52.675293 L79.3880418,62 L78.0042527,62 L77.058452,59.2070312 L73.3704637,59.2070312 L72.3611863,62 L71.0662645,62 L74.5765184,52.675293 Z M81.3426613,52.675293 L81.3426613,58.4389648 C81.3426613,59.1160516 81.4696132,59.6788715 81.7235207,60.1274414 C82.1001502,60.8045281 82.7349095,61.1430664 83.6278176,61.1430664 C84.698461,61.1430664 85.4263183,60.7770219 85.8114113,60.0449219 C86.0187691,59.6471334 86.1224465,59.1118198 86.1224465,58.4389648 L86.1224465,52.675293 L87.404673,52.675293 L87.404673,57.9121094 C87.404673,59.058925 87.250215,59.9412404 86.9412941,60.559082 C86.374234,61.6847387 85.3036067,62.2475586 83.7293801,62.2475586 C82.1551535,62.2475586 81.086642,61.6847387 80.5238137,60.559082 C80.2148929,59.9412404 80.0604348,59.058925 80.0604348,57.9121094 L80.0604348,52.675293 L81.3426613,52.675293 Z M88.7943512,52.675293 L90.0575348,52.675293 L90.0575348,60.8891602 L94.780191,60.8891602 L94.780191,62 L88.7943512,62 L88.7943512,52.675293 Z M95.7445762,52.675293 L97.0204551,52.675293 L97.0204551,62 L95.7445762,62 L95.7445762,52.675293 Z M102.434547,52.4213867 C103.615217,52.4213867 104.531386,52.7324188 105.183082,53.3544922 C105.834778,53.9765656 106.196591,54.6832643 106.268532,55.4746094 L105.037086,55.4746094 C104.897437,54.8736949 104.619201,54.3976255 104.20237,54.0463867 C103.785538,53.695148 103.200502,53.5195312 102.447243,53.5195312 C101.528944,53.5195312 100.787333,53.8422005 100.222389,54.4875488 C99.6574448,55.1328971 99.374977,56.1220636 99.374977,57.4550781 C99.374977,58.5468805 99.6299386,59.4323697 100.13987,60.1115723 C100.6498,60.7907749 101.410454,61.1303711 102.421852,61.1303711 C103.352846,61.1303711 104.061661,60.77279 104.548317,60.0576172 C104.806456,59.6809877 104.999,59.1858755 105.125954,58.5722656 L106.357399,58.5722656 C106.247372,59.5540414 105.883444,60.3771126 105.265602,61.0415039 C104.525038,61.8413126 103.52635,62.2412109 102.269508,62.2412109 C101.186169,62.2412109 100.276348,61.913252 99.540016,61.2573242 C98.5709356,60.3898069 98.0864027,59.0504648 98.0864027,57.2392578 C98.0864027,55.8639254 98.4503314,54.7361698 99.1781996,53.855957 C99.9653129,52.899572 101.050751,52.4213867 102.434547,52.4213867 Z M109.923864,57.7915039 L113.110388,57.7915039 L113.110388,58.9658203 L109.923864,58.9658203 L109.923864,57.7915039 Z M117.305271,52.675293 L121.501072,52.675293 C122.330503,52.675293 122.999117,52.909096 123.506932,53.376709 C124.014747,53.844322 124.26865,54.5012979 124.26865,55.3476562 C124.26865,56.0755245 124.042253,56.7092258 123.589451,57.2487793 C123.136649,57.7883328 122.44053,58.0581055 121.501072,58.0581055 L118.568455,58.0581055 L118.568455,62 L117.305271,62 L117.305271,52.675293 Z M122.992771,55.3540039 C122.992771,54.6684536 122.738868,54.2029635 122.231053,53.9575195 C121.951754,53.826334 121.568783,53.7607422 121.082127,53.7607422 L118.568455,53.7607422 L118.568455,56.9916992 L121.082127,56.9916992 C121.649187,56.9916992 122.109388,56.871095 122.462742,56.6298828 C122.816097,56.3886707 122.992771,55.963382 122.992771,55.3540039 Z M125.290164,52.675293 L126.781864,52.675293 L131.491825,60.2290039 L131.491825,52.675293 L132.691532,52.675293 L132.691532,62 L131.276004,62 L126.496219,54.4526367 L126.496219,62 L125.290164,62 L125.290164,52.675293 Z M134.233554,52.675293 L141.031893,52.675293 L141.031893,53.8178711 L135.464999,53.8178711 L135.464999,56.6489258 L140.612948,56.6489258 L140.612948,57.7280273 L135.464999,57.7280273 L135.464999,60.8891602 L141.127108,60.8891602 L141.127108,62 L134.233554,62 L134.233554,52.675293 Z M143.58954,52.675293 L143.58954,58.4389648 C143.58954,59.1160516 143.716492,59.6788715 143.9704,60.1274414 C144.347029,60.8045281 144.981788,61.1430664 145.874696,61.1430664 C146.94534,61.1430664 147.673197,60.7770219 148.05829,60.0449219 C148.265648,59.6471334 148.369325,59.1118198 148.369325,58.4389648 L148.369325,52.675293 L149.651552,52.675293 L149.651552,57.9121094 C149.651552,59.058925 149.497094,59.9412404 149.188173,60.559082 C148.621113,61.6847387 147.550486,62.2475586 145.976259,62.2475586 C144.402032,62.2475586 143.333521,61.6847387 142.770693,60.559082 C142.461772,59.9412404 142.307314,59.058925 142.307314,57.9121094 L142.307314,52.675293 L143.58954,52.675293 Z M151.009492,52.675293 L152.818574,52.675293 L155.497285,60.559082 L158.156953,52.675293 L159.946992,52.675293 L159.946992,62 L158.747285,62 L158.749617,56.1829563 L158.749617,56.1829563 L158.769502,54.8668214 C158.771617,54.6309008 158.772675,54.3870455 158.772675,54.1352539 L156.113007,62 L154.862519,62 L152.183808,54.1352539 L152.18899,54.9297467 L152.18899,54.9297467 L152.215223,56.3946954 L152.215223,56.3946954 L152.215546,62 L151.009492,62 L151.009492,52.675293 Z M166.091064,58.1787109 L164.675537,54.059082 L163.171143,58.1787109 L166.091064,58.1787109 Z M164.015381,52.675293 L165.443604,52.675293 L168.826904,62 L167.443115,62 L166.497314,59.2070312 L162.809326,59.2070312 L161.800049,62 L160.505127,62 L164.015381,52.675293 Z M175.237579,52.675293 L175.237579,53.7861328 L172.095489,53.7861328 L172.095489,62 L170.813262,62 L170.813262,53.7861328 L167.671172,53.7861328 L167.671172,52.675293 L175.237579,52.675293 Z M176.113096,52.675293 L177.388975,52.675293 L177.388975,62 L176.113096,62 L176.113096,52.675293 Z M182.803068,52.4213867 C183.983738,52.4213867 184.899907,52.7324188 185.551603,53.3544922 C186.203299,53.9765656 186.565111,54.6832643 186.637052,55.4746094 L185.405607,55.4746094 C185.265958,54.8736949 184.987721,54.3976255 184.57089,54.0463867 C184.154058,53.695148 183.569022,53.5195312 182.815763,53.5195312 C181.897464,53.5195312 181.155854,53.8422005 180.590909,54.4875488 C180.025965,55.1328971 179.743497,56.1220636 179.743497,57.4550781 C179.743497,58.5468805 179.998459,59.4323697 180.50839,60.1115723 C181.018321,60.7907749 181.778974,61.1303711 182.790372,61.1303711 C183.721367,61.1303711 184.430181,60.77279 184.916837,60.0576172 C185.174976,59.6809877 185.36752,59.1858755 185.494474,58.5722656 L186.725919,58.5722656 C186.615893,59.5540414 186.251964,60.3771126 185.634122,61.0415039 C184.893559,61.8413126 183.894871,62.2412109 182.638029,62.2412109 C181.55469,62.2412109 180.644868,61.913252 179.908536,61.2573242 C178.939456,60.3898069 178.454923,59.0504648 178.454923,57.2392578 C178.454923,55.8639254 178.818852,54.7361698 179.54672,53.855957 C180.333833,52.899572 181.419272,52.4213867 182.803068,52.4213867 Z M190.292385,57.7915039 L193.478908,57.7915039 L193.478908,58.9658203 L190.292385,58.9658203 L190.292385,57.7915039 Z M197.673792,52.675293 L204.472132,52.675293 L204.472132,53.8178711 L198.905237,53.8178711 L198.905237,56.6489258 L204.053186,56.6489258 L204.053186,57.7280273 L198.905237,57.7280273 L198.905237,60.8891602 L204.567346,60.8891602 L204.567346,62 L197.673792,62 L197.673792,52.675293 Z M205.658685,52.675293 L206.921868,52.675293 L206.921868,60.8891602 L211.644525,60.8891602 L211.644525,62 L205.658685,62 L205.658685,52.675293 Z M212.443871,52.675293 L219.242211,52.675293 L219.242211,53.8178711 L213.675316,53.8178711 L213.675316,56.6489258 L218.823265,56.6489258 L218.823265,57.7280273 L213.675316,57.7280273 L213.675316,60.8891602 L219.337425,60.8891602 L219.337425,62 L212.443871,62 L212.443871,52.675293 Z M224.357963,52.4213867 C225.538633,52.4213867 226.454802,52.7324188 227.106498,53.3544922 C227.758194,53.9765656 228.120007,54.6832643 228.191947,55.4746094 L226.960502,55.4746094 C226.820853,54.8736949 226.542617,54.3976255 226.125785,54.0463867 C225.708954,53.695148 225.123917,53.5195312 224.370658,53.5195312 C223.452359,53.5195312 222.710749,53.8422005 222.145805,54.4875488 C221.58086,55.1328971 221.298393,56.1220636 221.298393,57.4550781 C221.298393,58.5468805 221.553354,59.4323697 222.063285,60.1115723 C222.573216,60.7907749 223.333869,61.1303711 224.345268,61.1303711 C225.276262,61.1303711 225.985076,60.77279 226.471732,60.0576172 C226.729872,59.6809877 226.922415,59.1858755 227.049369,58.5722656 L228.280814,58.5722656 C228.170788,59.5540414 227.806859,60.3771126 227.189018,61.0415039 C226.448454,61.8413126 225.449766,62.2412109 224.192924,62.2412109 C223.109585,62.2412109 222.199763,61.913252 221.463432,61.2573242 C220.494351,60.3898069 220.009818,59.0504648 220.009818,57.2392578 C220.009818,55.8639254 220.373747,54.7361698 221.101615,53.855957 C221.888729,52.899572 222.974167,52.4213867 224.357963,52.4213867 Z M236.037192,52.675293 L236.037192,53.7861328 L232.895102,53.7861328 L232.895102,62 L231.612875,62 L231.612875,53.7861328 L228.470786,53.7861328 L228.470786,52.675293 L236.037192,52.675293 Z M240.962514,56.9472656 C241.554965,56.9472656 242.023629,56.8287772 242.36852,56.5917969 C242.713411,56.3548165 242.885854,55.9274119 242.885854,55.3095703 C242.885854,54.645179 242.644646,54.192384 242.162221,53.9511719 C241.904082,53.8242181 241.559196,53.7607422 241.127554,53.7607422 L238.042593,53.7607422 L238.042593,56.9472656 L240.962514,56.9472656 Z M236.779409,52.675293 L241.095815,52.675293 C241.806756,52.675293 242.392851,52.7789703 242.854116,52.9863281 C243.730097,53.3841166 244.168081,54.1183215 244.168081,55.1889648 C244.168081,55.7475614 244.052766,56.2045881 243.822134,56.5600586 C243.591501,56.9155291 243.268832,57.2011708 242.854116,57.4169922 C243.21805,57.5651049 243.492055,57.7597644 243.676138,58.0009766 C243.86022,58.2421887 243.96284,58.6336236 243.983999,59.175293 L244.028432,60.4257812 L244.04677,60.7509229 C244.062757,60.947465 244.086266,61.1035693 244.1173,61.2192383 C244.193472,61.5154637 244.328887,61.7058915 244.52355,61.7905273 L244.52355,62 L242.974721,62 C242.932404,61.919596 242.89855,61.8159186 242.873159,61.6889648 C242.851395,61.5801473 242.832741,61.3842785 242.817196,61.1013538 L242.733511,59.3974609 C242.703888,58.7880829 242.477491,58.3797211 242.054311,58.1723633 C241.813099,58.0581049 241.434359,58.0009766 240.918081,58.0009766 L238.042593,58.0009766 L238.042593,62 L236.779409,62 L236.779409,52.675293 Z M249.474263,52.4213867 C251.12043,52.4213867 252.339168,52.9503528 253.130513,54.0083008 C253.748355,54.8335002 254.057271,55.8893165 254.057271,57.1757812 C254.057271,58.5680408 253.703921,59.7254186 252.997212,60.6479492 C252.167781,61.731288 250.985013,62.2729492 249.448872,62.2729492 C248.014295,62.2729492 246.886539,61.7989956 246.065571,60.8510742 C245.333471,59.9370071 244.967427,58.7817453 244.967427,57.3852539 C244.967427,56.1241799 245.280575,55.0450891 245.90688,54.1479492 C246.710921,52.9969018 247.900036,52.4213867 249.474263,52.4213867 Z M249.601216,61.1430664 C250.714177,61.1430664 251.519264,60.744226 252.016499,59.9465332 C252.513735,59.1488404 252.762349,58.2316133 252.762349,57.1948242 C252.762349,56.0987901 252.475649,55.2164747 251.902241,54.5478516 C251.328834,53.8792284 250.544906,53.5449219 249.550435,53.5449219 C248.585586,53.5449219 247.798485,53.8760546 247.189107,54.5383301 C246.579729,55.2006055 246.275044,56.1770769 246.275044,57.4677734 C246.275044,58.5003307 246.536353,59.3710088 247.05898,60.079834 C247.581606,60.7886591 248.42901,61.1430664 249.601216,61.1430664 Z M254.996265,52.675293 L256.487964,52.675293 L261.197925,60.2290039 L261.197925,52.675293 L262.397632,52.675293 L262.397632,62 L260.982105,62 L256.20232,54.4526367 L256.20232,62 L254.996265,62 L254.996265,52.675293 Z M264.104693,52.675293 L265.380572,52.675293 L265.380572,62 L264.104693,62 L264.104693,52.675293 Z M270.794664,52.4213867 C271.975334,52.4213867 272.891504,52.7324188 273.5432,53.3544922 C274.194896,53.9765656 274.556708,54.6832643 274.628649,55.4746094 L273.397204,55.4746094 C273.257554,54.8736949 272.979318,54.3976255 272.562487,54.0463867 C272.145655,53.695148 271.560619,53.5195312 270.80736,53.5195312 C269.889061,53.5195312 269.14745,53.8422005 268.582506,54.4875488 C268.017562,55.1328971 267.735094,56.1220636 267.735094,57.4550781 C267.735094,58.5468805 267.990056,59.4323697 268.499987,60.1115723 C269.009918,60.7907749 269.770571,61.1303711 270.781969,61.1303711 C271.712963,61.1303711 272.421778,60.77279 272.908434,60.0576172 C273.166573,59.6809877 273.359117,59.1858755 273.486071,58.5722656 L274.717516,58.5722656 C274.607489,59.5540414 274.243561,60.3771126 273.625719,61.0415039 C272.885156,61.8413126 271.886468,62.2412109 270.629625,62.2412109 C269.546287,62.2412109 268.636465,61.913252 267.900133,61.2573242 C266.931053,60.3898069 266.44652,59.0504648 266.44652,57.2392578 C266.44652,55.8639254 266.810449,54.7361698 267.538317,53.855957 C268.32543,52.899572 269.410868,52.4213867 270.794664,52.4213867 Z" id="HYDRAULIC-PNEUMATIC-ELECTRONIC" fill="#2474BE" fill-rule="nonzero"></path>
        </g>
    </g>
</svg>