<?xml version="1.0" encoding="UTF-8"?>
<svg width="312px" height="80px" viewBox="0 0 312 80" version="1.1" xmlns="http://www.w3.org/2000/svg" xmlns:xlink="http://www.w3.org/1999/xlink">
    <!-- Generator: Sketch 59.1 (86144) - https://sketch.com -->
    <title>logo-text</title>
    <desc>Created with Sketch.</desc>
    <g id="Page-1" stroke="none" stroke-width="1" fill="none" fill-rule="evenodd">
        <g id="logo-text">
            <rect id="Rectangle" fill="#035199" x="1" y="38" width="311" height="5"></rect>
            <rect id="liquid" fill="#059EDE" x="2" y="39" width="20" height="3"></rect>
            <line id="water-reflection" x1="13.5" y1="39.5" x2="21.5" y2="39.5" id="Line" stroke="#FFFFFF" stroke-linecap="square"></line>
            <path d="M6.59423828,5.32958984 L9.83300781,5.32958984 L9.83300781,15.1103516 L22.1435547,15.1103516 L22.1435547,5.32958984 L25.3823242,5.32958984 L25.3823242,29 L22.1435547,29 L22.1435547,17.9301758 L9.83300781,17.9301758 L9.83300781,29 L6.59423828,29 L6.59423828,5.32958984 Z M30.0859672,5.32958984 L40.7368461,5.32958984 C42.8423254,5.32958984 44.539574,5.92308977 45.828643,7.11010742 C47.1177119,8.29712508 47.7622367,9.96483301 47.7622367,12.1132812 C47.7622367,13.9609467 47.1875354,15.5695732 46.0381156,16.939209 C44.8886958,18.3088447 43.1216236,18.9936523 40.7368461,18.9936523 L33.2925102,18.9936523 L33.2925102,29 L30.0859672,29 L30.0859672,5.32958984 Z M44.5234672,12.1293945 C44.5234672,10.3891515 43.8789424,9.20752265 42.5898734,8.58447266 C41.8808855,8.25146318 40.9087273,8.08496094 39.6733695,8.08496094 L33.2925102,8.08496094 L33.2925102,16.2866211 L39.6733695,16.2866211 C41.1128299,16.2866211 42.2810311,15.9804718 43.1780082,15.3681641 C44.0749853,14.7558563 44.5234672,13.6762773 44.5234672,12.1293945 Z M51.5313094,5.32958984 L68.7886336,5.32958984 L68.7886336,8.22998047 L54.6572859,8.22998047 L54.6572859,15.4165039 L67.725157,15.4165039 L67.725157,18.1557617 L54.6572859,18.1557617 L54.6572859,26.1801758 L69.0303328,26.1801758 L69.0303328,29 L51.5313094,29 L51.5313094,5.32958984 Z M81.9986539,5.32958984 L85.2374234,5.32958984 L85.2374234,29 L81.9986539,29 L81.9986539,5.32958984 Z M89.8766133,5.32958984 L93.6632344,5.32958984 L105.619289,24.5043945 L105.619289,5.32958984 L108.664699,5.32958984 L108.664699,29 L105.071438,29 L92.9381367,9.84130859 L92.9381367,29 L89.8766133,29 L89.8766133,5.32958984 Z M122.230647,26.2607422 C123.315613,26.2607422 124.207206,26.1479503 124.905452,25.9223633 C126.151552,25.5034159 127.172049,24.6977599 127.966975,23.5053711 C128.600767,22.5493116 129.057306,21.3247145 129.336604,19.831543 C129.497738,18.9399369 129.578303,18.1127968 129.578303,17.3500977 C129.578303,14.4174658 128.995545,12.1401448 127.830012,10.5180664 C126.664479,8.89598798 124.7873,8.08496094 122.19842,8.08496094 L116.510432,8.08496094 L116.510432,26.2607422 L122.230647,26.2607422 Z M113.287776,5.32958984 L122.875178,5.32958984 C126.130077,5.32958984 128.654466,6.48436345 130.44842,8.79394531 C132.049014,10.8779401 132.849299,13.547347 132.849299,16.8022461 C132.849299,19.3159305 132.376648,21.5878805 131.43133,23.6181641 C129.766283,27.2060726 126.903519,29 122.842952,29 L113.287776,29 L113.287776,5.32958984 Z M139.889368,5.32958984 L139.889368,19.9604492 C139.889368,21.6792078 140.21163,23.1079045 140.856165,24.246582 C141.812224,25.9653406 143.423536,26.824707 145.690149,26.824707 C148.407936,26.824707 150.255574,25.8955171 151.233118,24.0371094 C151.759488,23.0273387 152.022669,21.6684656 152.022669,19.9604492 L152.022669,5.32958984 L155.277552,5.32958984 L155.277552,18.6230469 C155.277552,21.5341942 154.885466,23.7739179 154.101282,25.3422852 C152.661822,28.1997213 149.944075,29.628418 145.947962,29.628418 C141.951848,29.628418 139.239473,28.1997213 137.810755,25.3422852 C137.026571,23.7739179 136.634485,21.5341942 136.634485,18.6230469 L136.634485,5.32958984 L139.889368,5.32958984 Z M161.769769,21.3623047 C161.844964,22.7050848 162.161856,23.795406 162.720452,24.6333008 C163.783934,26.201668 165.658427,26.9858398 168.343988,26.9858398 C169.547119,26.9858398 170.642811,26.8139666 171.631097,26.4702148 C173.543216,25.8041959 174.499261,24.611825 174.499261,22.8930664 C174.499261,21.6039975 174.096433,20.6855496 173.290765,20.1376953 C172.474355,19.6005833 171.196047,19.1333028 169.455804,18.7358398 L166.249261,18.0107422 C164.154524,17.5380836 162.672117,17.0170927 161.801995,16.4477539 C160.298082,15.4594677 159.546136,13.9824317 159.546136,12.0166016 C159.546136,9.8896378 160.281968,8.14404979 161.753655,6.77978516 C163.225343,5.41552052 165.309306,4.73339844 168.005609,4.73339844 C170.487066,4.73339844 172.5952,5.3322694 174.330071,6.5300293 C176.064943,7.72778919 176.932366,9.64256497 176.932366,12.2744141 L173.919183,12.2744141 C173.758049,11.0068296 173.414303,10.0346714 172.887933,9.35791016 C171.910389,8.12255242 170.250737,7.50488281 167.908929,7.50488281 C166.018294,7.50488281 164.659421,7.90233978 163.832269,8.69726562 C163.005116,9.49219147 162.591546,10.4160104 162.591546,11.46875 C162.591546,12.6289121 163.07494,13.4775364 164.041741,14.0146484 C164.642176,14.340308 165.960864,14.7430916 167.997841,15.2230103 L171.663323,16.0610352 C173.263917,16.4262714 174.499257,16.9257781 175.369378,17.5595703 C176.873292,18.6660212 177.625238,20.2719621 177.625238,22.3774414 C177.625238,24.9985483 176.671878,26.8730412 174.76513,28.0009766 C172.858382,29.1289119 170.642828,29.6928711 168.118402,29.6928711 C165.175027,29.6928711 162.870851,28.9409255 161.205804,27.4370117 C159.540757,25.9438402 158.724358,23.9189581 158.756585,21.3623047 L161.769769,21.3623047 Z M198.345482,5.32958984 L198.345482,8.14941406 L190.369408,8.14941406 L190.369408,29 L187.114525,29 L187.114525,8.14941406 L179.138451,8.14941406 L179.138451,5.32958984 L198.345482,5.32958984 Z M211.71807,16.1738281 C213.221984,16.1738281 214.411669,15.8730499 215.287162,15.2714844 C216.162655,14.6699189 216.600395,13.5849609 216.600395,12.0166016 C216.600395,10.3300697 215.988096,9.18066712 214.76348,8.56835938 C214.108204,8.24609214 213.232724,8.08496094 212.137016,8.08496094 L204.305961,8.08496094 L204.305961,16.1738281 L211.71807,16.1738281 Z M201.099418,5.32958984 L212.056449,5.32958984 C213.861146,5.32958984 215.348924,5.59277081 216.519828,6.11914062 C218.743472,7.1289113 219.855277,8.99266219 219.855277,11.7104492 C219.855277,13.1284251 219.562556,14.2885697 218.977104,15.190918 C218.391651,16.0932662 217.572568,16.8183566 216.519828,17.3662109 C217.443661,17.7421894 218.139211,18.2363251 218.606498,18.8486328 C219.073786,19.4609406 219.334281,20.454583 219.387992,21.8295898 L219.500785,25.0039062 C219.533012,25.9062545 219.608206,26.5776345 219.726371,27.0180664 C219.919731,27.7700233 220.263478,28.2534169 220.757621,28.4682617 L220.757621,29 L216.82598,29 C216.718558,28.7958974 216.632621,28.5327165 216.568168,28.2104492 C216.503715,27.888182 216.450004,27.2651413 216.407035,26.3413086 L216.213676,22.3935547 C216.13848,20.846672 215.563779,19.8100612 214.489555,19.2836914 C213.877247,18.9936509 212.915831,18.8486328 211.605277,18.8486328 L204.305961,18.8486328 L204.305961,29 L201.099418,29 L201.099418,5.32958984 Z M221.56185,5.32958984 L225.300131,5.32958984 L232.099936,16.7055664 L238.899741,5.32958984 L242.654135,5.32958984 L233.711264,19.4609375 L233.711264,29 L230.504721,29 L230.504721,19.4609375 L221.56185,5.32958984 Z M252.867085,5.32958984 L256.073628,5.32958984 L256.073628,26.1801758 L268.061909,26.1801758 L268.061909,29 L252.867085,29 L252.867085,5.32958984 Z M285.446705,5.32958984 L285.446705,8.14941406 L277.47063,8.14941406 L277.47063,29 L274.215748,29 L274.215748,8.14941406 L266.239673,8.14941406 L266.239673,5.32958984 L285.446705,5.32958984 Z M296.901813,26.2607422 C297.986779,26.2607422 298.878372,26.1479503 299.576617,25.9223633 C300.822717,25.5034159 301.843215,24.6977599 302.638141,23.5053711 C303.271933,22.5493116 303.728471,21.3247145 304.00777,19.831543 C304.168903,18.9399369 304.249469,18.1127968 304.249469,17.3500977 C304.249469,14.4174658 303.666711,12.1401448 302.501178,10.5180664 C301.335645,8.89598798 299.458466,8.08496094 296.869586,8.08496094 L291.181598,8.08496094 L291.181598,26.2607422 L296.901813,26.2607422 Z M287.958941,5.32958984 L297.546344,5.32958984 C300.801243,5.32958984 303.325632,6.48436345 305.119586,8.79394531 C306.72018,10.8779401 307.520465,13.547347 307.520465,16.8022461 C307.520465,19.3159305 307.047813,21.5878805 306.102496,23.6181641 C304.437449,27.2060726 301.574684,29 297.514117,29 L287.958941,29 L287.958941,5.32958984 Z" id="HPEINDUSTRYLTD" fill="#035199" fill-rule="nonzero"></path>
            <path d="M38.3239582,52.675293 L39.5998371,52.675293 L39.5998371,56.5283203 L44.4494465,56.5283203 L44.4494465,52.675293 L45.7253254,52.675293 L45.7253254,62 L44.4494465,62 L44.4494465,57.6391602 L39.5998371,57.6391602 L39.5998371,62 L38.3239582,62 L38.3239582,52.675293 Z M46.3913707,52.675293 L47.864027,52.675293 L50.5427379,57.1567383 L53.2214488,52.675293 L54.7004527,52.675293 L51.1775035,58.2421875 L51.1775035,62 L49.9143199,62 L49.9143199,58.2421875 L46.3913707,52.675293 Z M58.8005801,60.9208984 C59.2279911,60.9208984 59.5792245,60.8764653 59.854291,60.7875977 C60.3451789,60.6225578 60.7471931,60.3051781 61.0603457,59.8354492 C61.3100214,59.4588197 61.4898699,58.9764027 61.5998965,58.3881836 C61.6633734,58.0369449 61.6951113,57.7111018 61.6951113,57.4106445 C61.6951113,56.2553653 61.4655401,55.3582389 61.0063906,54.7192383 C60.5472412,54.0802377 59.8077466,53.7607422 58.7878848,53.7607422 L56.5471621,53.7607422 L56.5471621,60.9208984 L58.8005801,60.9208984 Z M55.2776309,52.675293 L59.0544863,52.675293 C60.3367193,52.675293 61.3311755,53.1302038 62.0378848,54.0400391 C62.6684218,54.8610067 62.9836855,55.9125912 62.9836855,57.1948242 C62.9836855,58.1850635 62.7974895,59.0800741 62.4250918,59.8798828 C61.769164,61.2933013 60.6414084,62 59.041791,62 L55.2776309,62 L55.2776309,52.675293 Z M68.3787348,56.9472656 C68.9711856,56.9472656 69.4398496,56.8287772 69.7847406,56.5917969 C70.1296317,56.3548165 70.3020746,55.9274119 70.3020746,55.3095703 C70.3020746,54.645179 70.0608661,54.192384 69.5784418,53.9511719 C69.3203025,53.8242181 68.9754166,53.7607422 68.5437738,53.7607422 L65.4588129,53.7607422 L65.4588129,56.9472656 L68.3787348,56.9472656 Z M64.1956293,52.675293 L68.5120355,52.675293 C69.2229766,52.675293 69.809071,52.7789703 70.2703363,52.9863281 C71.1463173,53.3841166 71.5843012,54.1183215 71.5843012,55.1889648 C71.5843012,55.7475614 71.4689866,56.2045881 71.2383539,56.5600586 C71.0077212,56.9155291 70.6850519,57.2011708 70.2703363,57.4169922 C70.6342704,57.5651049 70.9082749,57.7597644 71.0923578,58.0009766 C71.2764408,58.2421887 71.3790602,58.6336236 71.4002191,59.175293 L71.4446527,60.4257812 L71.4629904,60.7509229 C71.478977,60.947465 71.5024868,61.1035693 71.5335199,61.2192383 C71.6096922,61.5154637 71.7451075,61.7058915 71.9397699,61.7905273 L71.9397699,62 L70.3909418,62 C70.3486239,61.919596 70.31477,61.8159186 70.2893793,61.6889648 C70.2639885,61.5620111 70.2428299,61.3165708 70.2259027,60.9526367 L70.1497309,59.3974609 C70.1201083,58.7880829 69.8937108,58.3797211 69.4705316,58.1723633 C69.2293195,58.0581049 68.8505798,58.0009766 68.3343012,58.0009766 L65.4588129,58.0009766 L65.4588129,62 L64.1956293,62 L64.1956293,52.675293 Z M77.652202,58.1787109 L76.2366746,54.059082 L74.7322801,58.1787109 L77.652202,58.1787109 Z M75.5765184,52.675293 L77.004741,52.675293 L80.3880418,62 L79.0042527,62 L78.058452,59.2070312 L74.3704637,59.2070312 L73.3611863,62 L72.0662645,62 L75.5765184,52.675293 Z M82.3426613,52.675293 L82.3426613,58.4389648 C82.3426613,59.1160516 82.4696132,59.6788715 82.7235207,60.1274414 C83.1001502,60.8045281 83.7349095,61.1430664 84.6278176,61.1430664 C85.698461,61.1430664 86.4263183,60.7770219 86.8114113,60.0449219 C87.0187691,59.6471334 87.1224465,59.1118198 87.1224465,58.4389648 L87.1224465,52.675293 L88.404673,52.675293 L88.404673,57.9121094 C88.404673,59.058925 88.250215,59.9412404 87.9412941,60.559082 C87.374234,61.6847387 86.3036067,62.2475586 84.7293801,62.2475586 C83.1551535,62.2475586 82.086642,61.6847387 81.5238137,60.559082 C81.2148929,59.9412404 81.0604348,59.058925 81.0604348,57.9121094 L81.0604348,52.675293 L82.3426613,52.675293 Z M89.7943512,52.675293 L91.0575348,52.675293 L91.0575348,60.8891602 L95.780191,60.8891602 L95.780191,62 L89.7943512,62 L89.7943512,52.675293 Z M96.7445762,52.675293 L98.0204551,52.675293 L98.0204551,62 L96.7445762,62 L96.7445762,52.675293 Z M103.434547,52.4213867 C104.615217,52.4213867 105.531386,52.7324188 106.183082,53.3544922 C106.834778,53.9765656 107.196591,54.6832643 107.268532,55.4746094 L106.037086,55.4746094 C105.897437,54.8736949 105.619201,54.3976255 105.20237,54.0463867 C104.785538,53.695148 104.200502,53.5195312 103.447243,53.5195312 C102.528944,53.5195312 101.787333,53.8422005 101.222389,54.4875488 C100.657445,55.1328971 100.374977,56.1220636 100.374977,57.4550781 C100.374977,58.5468805 100.629939,59.4323697 101.13987,60.1115723 C101.6498,60.7907749 102.410454,61.1303711 103.421852,61.1303711 C104.352846,61.1303711 105.061661,60.77279 105.548317,60.0576172 C105.806456,59.6809877 105.999,59.1858755 106.125954,58.5722656 L107.357399,58.5722656 C107.247372,59.5540414 106.883444,60.3771126 106.265602,61.0415039 C105.525038,61.8413126 104.52635,62.2412109 103.269508,62.2412109 C102.186169,62.2412109 101.276348,61.913252 100.540016,61.2573242 C99.5709356,60.3898069 99.0864027,59.0504648 99.0864027,57.2392578 C99.0864027,55.8639254 99.4503314,54.7361698 100.1782,53.855957 C100.965313,52.899572 102.050751,52.4213867 103.434547,52.4213867 Z M110.923864,57.7915039 L114.110388,57.7915039 L114.110388,58.9658203 L110.923864,58.9658203 L110.923864,57.7915039 Z M118.305271,52.675293 L122.501072,52.675293 C123.330503,52.675293 123.999117,52.909096 124.506932,53.376709 C125.014747,53.844322 125.26865,54.5012979 125.26865,55.3476562 C125.26865,56.0755245 125.042253,56.7092258 124.589451,57.2487793 C124.136649,57.7883328 123.44053,58.0581055 122.501072,58.0581055 L119.568455,58.0581055 L119.568455,62 L118.305271,62 L118.305271,52.675293 Z M123.992771,55.3540039 C123.992771,54.6684536 123.738868,54.2029635 123.231053,53.9575195 C122.951754,53.826334 122.568783,53.7607422 122.082127,53.7607422 L119.568455,53.7607422 L119.568455,56.9916992 L122.082127,56.9916992 C122.649187,56.9916992 123.109388,56.871095 123.462742,56.6298828 C123.816097,56.3886707 123.992771,55.963382 123.992771,55.3540039 Z M126.290164,52.675293 L127.781864,52.675293 L132.491825,60.2290039 L132.491825,52.675293 L133.691532,52.675293 L133.691532,62 L132.276004,62 L127.496219,54.4526367 L127.496219,62 L126.290164,62 L126.290164,52.675293 Z M135.233554,52.675293 L142.031893,52.675293 L142.031893,53.8178711 L136.464999,53.8178711 L136.464999,56.6489258 L141.612948,56.6489258 L141.612948,57.7280273 L136.464999,57.7280273 L136.464999,60.8891602 L142.127108,60.8891602 L142.127108,62 L135.233554,62 L135.233554,52.675293 Z M144.58954,52.675293 L144.58954,58.4389648 C144.58954,59.1160516 144.716492,59.6788715 144.9704,60.1274414 C145.347029,60.8045281 145.981788,61.1430664 146.874696,61.1430664 C147.94534,61.1430664 148.673197,60.7770219 149.05829,60.0449219 C149.265648,59.6471334 149.369325,59.1118198 149.369325,58.4389648 L149.369325,52.675293 L150.651552,52.675293 L150.651552,57.9121094 C150.651552,59.058925 150.497094,59.9412404 150.188173,60.559082 C149.621113,61.6847387 148.550486,62.2475586 146.976259,62.2475586 C145.402032,62.2475586 144.333521,61.6847387 143.770693,60.559082 C143.461772,59.9412404 143.307314,59.058925 143.307314,57.9121094 L143.307314,52.675293 L144.58954,52.675293 Z M152.009492,52.675293 L153.818574,52.675293 L156.497285,60.559082 L159.156953,52.675293 L160.946992,52.675293 L160.946992,62 L159.747285,62 L159.749617,56.1829563 L159.749617,56.1829563 L159.769502,54.8668214 C159.771617,54.6309008 159.772675,54.3870455 159.772675,54.1352539 L157.113007,62 L155.862519,62 L153.183808,54.1352539 L153.18899,54.9297467 L153.18899,54.9297467 L153.215223,56.3946954 L153.215223,56.3946954 L153.215546,62 L152.009492,62 L152.009492,52.675293 Z M167.091064,58.1787109 L165.675537,54.059082 L164.171143,58.1787109 L167.091064,58.1787109 Z M165.015381,52.675293 L166.443604,52.675293 L169.826904,62 L168.443115,62 L167.497314,59.2070312 L163.809326,59.2070312 L162.800049,62 L161.505127,62 L165.015381,52.675293 Z M176.237579,52.675293 L176.237579,53.7861328 L173.095489,53.7861328 L173.095489,62 L171.813262,62 L171.813262,53.7861328 L168.671172,53.7861328 L168.671172,52.675293 L176.237579,52.675293 Z M177.113096,52.675293 L178.388975,52.675293 L178.388975,62 L177.113096,62 L177.113096,52.675293 Z M183.803068,52.4213867 C184.983738,52.4213867 185.899907,52.7324188 186.551603,53.3544922 C187.203299,53.9765656 187.565111,54.6832643 187.637052,55.4746094 L186.405607,55.4746094 C186.265958,54.8736949 185.987721,54.3976255 185.57089,54.0463867 C185.154058,53.695148 184.569022,53.5195312 183.815763,53.5195312 C182.897464,53.5195312 182.155854,53.8422005 181.590909,54.4875488 C181.025965,55.1328971 180.743497,56.1220636 180.743497,57.4550781 C180.743497,58.5468805 180.998459,59.4323697 181.50839,60.1115723 C182.018321,60.7907749 182.778974,61.1303711 183.790372,61.1303711 C184.721367,61.1303711 185.430181,60.77279 185.916837,60.0576172 C186.174976,59.6809877 186.36752,59.1858755 186.494474,58.5722656 L187.725919,58.5722656 C187.615893,59.5540414 187.251964,60.3771126 186.634122,61.0415039 C185.893559,61.8413126 184.894871,62.2412109 183.638029,62.2412109 C182.55469,62.2412109 181.644868,61.913252 180.908536,61.2573242 C179.939456,60.3898069 179.454923,59.0504648 179.454923,57.2392578 C179.454923,55.8639254 179.818852,54.7361698 180.54672,53.855957 C181.333833,52.899572 182.419272,52.4213867 183.803068,52.4213867 Z M191.292385,57.7915039 L194.478908,57.7915039 L194.478908,58.9658203 L191.292385,58.9658203 L191.292385,57.7915039 Z M198.673792,52.675293 L205.472132,52.675293 L205.472132,53.8178711 L199.905237,53.8178711 L199.905237,56.6489258 L205.053186,56.6489258 L205.053186,57.7280273 L199.905237,57.7280273 L199.905237,60.8891602 L205.567346,60.8891602 L205.567346,62 L198.673792,62 L198.673792,52.675293 Z M206.658685,52.675293 L207.921868,52.675293 L207.921868,60.8891602 L212.644525,60.8891602 L212.644525,62 L206.658685,62 L206.658685,52.675293 Z M213.443871,52.675293 L220.242211,52.675293 L220.242211,53.8178711 L214.675316,53.8178711 L214.675316,56.6489258 L219.823265,56.6489258 L219.823265,57.7280273 L214.675316,57.7280273 L214.675316,60.8891602 L220.337425,60.8891602 L220.337425,62 L213.443871,62 L213.443871,52.675293 Z M225.357963,52.4213867 C226.538633,52.4213867 227.454802,52.7324188 228.106498,53.3544922 C228.758194,53.9765656 229.120007,54.6832643 229.191947,55.4746094 L227.960502,55.4746094 C227.820853,54.8736949 227.542617,54.3976255 227.125785,54.0463867 C226.708954,53.695148 226.123917,53.5195312 225.370658,53.5195312 C224.452359,53.5195312 223.710749,53.8422005 223.145805,54.4875488 C222.58086,55.1328971 222.298393,56.1220636 222.298393,57.4550781 C222.298393,58.5468805 222.553354,59.4323697 223.063285,60.1115723 C223.573216,60.7907749 224.333869,61.1303711 225.345268,61.1303711 C226.276262,61.1303711 226.985076,60.77279 227.471732,60.0576172 C227.729872,59.6809877 227.922415,59.1858755 228.049369,58.5722656 L229.280814,58.5722656 C229.170788,59.5540414 228.806859,60.3771126 228.189018,61.0415039 C227.448454,61.8413126 226.449766,62.2412109 225.192924,62.2412109 C224.109585,62.2412109 223.199763,61.913252 222.463432,61.2573242 C221.494351,60.3898069 221.009818,59.0504648 221.009818,57.2392578 C221.009818,55.8639254 221.373747,54.7361698 222.101615,53.855957 C222.888729,52.899572 223.974167,52.4213867 225.357963,52.4213867 Z M237.037192,52.675293 L237.037192,53.7861328 L233.895102,53.7861328 L233.895102,62 L232.612875,62 L232.612875,53.7861328 L229.470786,53.7861328 L229.470786,52.675293 L237.037192,52.675293 Z M241.962514,56.9472656 C242.554965,56.9472656 243.023629,56.8287772 243.36852,56.5917969 C243.713411,56.3548165 243.885854,55.9274119 243.885854,55.3095703 C243.885854,54.645179 243.644646,54.192384 243.162221,53.9511719 C242.904082,53.8242181 242.559196,53.7607422 242.127554,53.7607422 L239.042593,53.7607422 L239.042593,56.9472656 L241.962514,56.9472656 Z M237.779409,52.675293 L242.095815,52.675293 C242.806756,52.675293 243.392851,52.7789703 243.854116,52.9863281 C244.730097,53.3841166 245.168081,54.1183215 245.168081,55.1889648 C245.168081,55.7475614 245.052766,56.2045881 244.822134,56.5600586 C244.591501,56.9155291 244.268832,57.2011708 243.854116,57.4169922 C244.21805,57.5651049 244.492055,57.7597644 244.676138,58.0009766 C244.86022,58.2421887 244.96284,58.6336236 244.983999,59.175293 L245.028432,60.4257812 L245.04677,60.7509229 C245.062757,60.947465 245.086266,61.1035693 245.1173,61.2192383 C245.193472,61.5154637 245.328887,61.7058915 245.52355,61.7905273 L245.52355,62 L243.974721,62 C243.932404,61.919596 243.89855,61.8159186 243.873159,61.6889648 C243.851395,61.5801473 243.832741,61.3842785 243.817196,61.1013538 L243.733511,59.3974609 C243.703888,58.7880829 243.477491,58.3797211 243.054311,58.1723633 C242.813099,58.0581049 242.434359,58.0009766 241.918081,58.0009766 L239.042593,58.0009766 L239.042593,62 L237.779409,62 L237.779409,52.675293 Z M250.474263,52.4213867 C252.12043,52.4213867 253.339168,52.9503528 254.130513,54.0083008 C254.748355,54.8335002 255.057271,55.8893165 255.057271,57.1757812 C255.057271,58.5680408 254.703921,59.7254186 253.997212,60.6479492 C253.167781,61.731288 251.985013,62.2729492 250.448872,62.2729492 C249.014295,62.2729492 247.886539,61.7989956 247.065571,60.8510742 C246.333471,59.9370071 245.967427,58.7817453 245.967427,57.3852539 C245.967427,56.1241799 246.280575,55.0450891 246.90688,54.1479492 C247.710921,52.9969018 248.900036,52.4213867 250.474263,52.4213867 Z M250.601216,61.1430664 C251.714177,61.1430664 252.519264,60.744226 253.016499,59.9465332 C253.513735,59.1488404 253.762349,58.2316133 253.762349,57.1948242 C253.762349,56.0987901 253.475649,55.2164747 252.902241,54.5478516 C252.328834,53.8792284 251.544906,53.5449219 250.550435,53.5449219 C249.585586,53.5449219 248.798485,53.8760546 248.189107,54.5383301 C247.579729,55.2006055 247.275044,56.1770769 247.275044,57.4677734 C247.275044,58.5003307 247.536353,59.3710088 248.05898,60.079834 C248.581606,60.7886591 249.42901,61.1430664 250.601216,61.1430664 Z M255.996265,52.675293 L257.487964,52.675293 L262.197925,60.2290039 L262.197925,52.675293 L263.397632,52.675293 L263.397632,62 L261.982105,62 L257.20232,54.4526367 L257.20232,62 L255.996265,62 L255.996265,52.675293 Z M265.104693,52.675293 L266.380572,52.675293 L266.380572,62 L265.104693,62 L265.104693,52.675293 Z M271.794664,52.4213867 C272.975334,52.4213867 273.891504,52.7324188 274.5432,53.3544922 C275.194896,53.9765656 275.556708,54.6832643 275.628649,55.4746094 L274.397204,55.4746094 C274.257554,54.8736949 273.979318,54.3976255 273.562487,54.0463867 C273.145655,53.695148 272.560619,53.5195312 271.80736,53.5195312 C270.889061,53.5195312 270.14745,53.8422005 269.582506,54.4875488 C269.017562,55.1328971 268.735094,56.1220636 268.735094,57.4550781 C268.735094,58.5468805 268.990056,59.4323697 269.499987,60.1115723 C270.009918,60.7907749 270.770571,61.1303711 271.781969,61.1303711 C272.712963,61.1303711 273.421778,60.77279 273.908434,60.0576172 C274.166573,59.6809877 274.359117,59.1858755 274.486071,58.5722656 L275.717516,58.5722656 C275.607489,59.5540414 275.243561,60.3771126 274.625719,61.0415039 C273.885156,61.8413126 272.886468,62.2412109 271.629625,62.2412109 C270.546287,62.2412109 269.636465,61.913252 268.900133,61.2573242 C267.931053,60.3898069 267.44652,59.0504648 267.44652,57.2392578 C267.44652,55.8639254 267.810449,54.7361698 268.538317,53.855957 C269.32543,52.899572 270.410868,52.4213867 271.794664,52.4213867 Z" id="HYDRAULIC-PNEUMATIC-ELECTRONIC" fill="#2474BE" fill-rule="nonzero"></path>
        </g>
    </g>
</svg>